<svg width="629" height="930" viewBox="0 0 629 930" fill="none" xmlns="http://www.w3.org/2000/svg">
<ellipse cx="462.067" cy="499.933" rx="10.5028" ry="10.5167" fill="black"/>
<ellipse cx="516.551" cy="499.933" rx="10.5028" ry="10.5167" fill="black"/>
<path d="M472.291 537.183C474.459 545.12 481.423 558.105 489.879 545.567C493.674 550.995 502.09 556.722 507.456 537.183" stroke="black" stroke-width="5"/>
<path d="M499.238 519.299C490.902 514.431 484.187 517.271 481.872 519.299C486.017 521.857 490.011 527.801 490.011 527.674C490.011 526.199 496.343 521.546 499.238 519.299Z" fill="black" stroke="black" stroke-width="5"/>
<path d="M489.996 527.007V546.041" stroke="black" stroke-width="5"/>
<path d="M591.383 503.548C588.857 526.001 554.711 514.737 534.537 525.369" stroke="black" stroke-width="5"/>
<path d="M385.697 503.548C388.223 526.001 422.369 514.737 442.543 525.369" stroke="black" stroke-width="5"/>
<path d="M595.49 557.625C579.699 540.232 552.41 559.224 535.775 543.984" stroke="black" stroke-width="5"/>
<path d="M384.263 557.625C400.054 540.232 427.343 559.224 443.978 543.984" stroke="black" stroke-width="5"/>
<path d="M535.692 533.938L562.329 531.061H595.806" stroke="black" stroke-width="5"/>
<path d="M444.177 533.938L417.54 531.061H384.063" stroke="black" stroke-width="5"/>
<path d="M198.374 282.095C219.322 289.192 237.217 283.599 248.638 287.847C260.06 292.095 261.864 304.166 271.791 302.109C281.718 300.053 270.422 282.095 284.448 275.641C298.473 269.187 308.391 274.651 319.594 275.173C332.971 275.796 355.32 281.539 368.201 275.55C380.248 269.949 389.005 250.696 394.765 239.801C402.161 225.812 406.929 210.945 417.467 198.77C428.292 186.263 442.11 177.112 443.937 159.625C445.073 148.756 441.995 140.899 437.532 131.138C428.475 111.33 413.344 87.1539 393.069 77.1844C382.274 71.8761 370.593 68.5234 363.679 57.7535C358.999 50.463 360.972 41.2629 357.462 33.6062C347.252 11.3328 309.385 14.7567 290.392 15.6844C275.856 16.3944 258.406 19.9432 244.234 15.2128C236.506 12.6334 230.473 6.79927 222.944 4.45973C197.158 -3.55371 144.174 24.302 137.128 18.6085C130.083 12.915 72.063 14.7519 67.4306 62.9405C65.7696 84.4493 48.4719 98.2512 25.1815 106.656C0.433448 111.218 -5.09333 148.36 18.1541 160.945C35.9407 173.039 27.6964 190.528 33.9797 208.108C40.2629 225.688 53.234 265.386 79.176 265.386C88.2031 265.386 114.739 280.04 123.696 282.095C137.98 285.373 177.426 274.998 198.374 282.095Z" stroke="black" stroke-width="5" stroke-linecap="round"/>
<path d="M244.423 342.122C251.713 340.022 264.582 335.064 267.788 327.574C267.788 321.656 271.917 326.809 276.029 326.809C278.901 326.809 280.773 325.554 283.463 325.32C288.23 324.905 288.876 327.511 289.793 331.998C291.037 338.089 297.156 332.63 299.903 338.294C301 340.554 300.668 343.162 300.668 345.61C300.668 348.931 294.892 350.328 292.257 350.928C289.006 351.667 284.787 350.469 282.146 353.012C279.411 355.645 276.759 358.826 273.48 360.796C268.563 363.75 262.989 352.905 257.04 353.65C252.17 354.26 236.437 356.182 236.437 347.907C236.437 344.698 242.031 342.811 244.423 342.122Z" stroke="black" stroke-width="5" stroke-linecap="round"/>
<path d="M332.402 476.754C318.574 479.433 324.472 465.603 332.784 462.333C332.784 459.655 334.006 460.036 336.437 460.036C337.699 460.036 339.004 459.936 340.261 460.036C341.984 460.174 339.397 461.833 339.581 462.333C341.068 466.376 352.429 460.951 354.025 465.566C354.782 467.756 351.634 471.024 350.414 472.627C348.386 475.292 346.033 474.72 343.107 473.818C338.36 472.356 336.827 475.896 332.402 476.754Z" stroke="black" stroke-width="5" stroke-linecap="round"/>
<path d="M533.777 918.391C539.467 891.645 562.098 851.32 594.669 911.398" stroke="black" stroke-width="5"/>
<path d="M362.482 560.553C367.805 501.919 387.312 391.971 409.493 335.705C425.463 335.705 447.147 415.707 454.54 454.205H529.953C543.262 415.707 573.427 338.713 587.623 338.713C601.818 338.713 617.197 500.105 623.111 580.801C629.026 674.083 623.121 856.842 623.121 899.996C545.019 939.047 407.293 912.329 348.193 894.089C348.193 864.988 355.827 633.846 362.482 560.553Z" stroke="black" stroke-width="5"/>
<path d="M377.979 900.722C391.495 876.951 421.745 846.189 434.609 913.306" stroke="black" stroke-width="5"/>
<path d="M280.957 399.633C287.689 396.263 294.917 398.017 302.198 398.017C304.195 398.017 306.293 397.811 308.273 398.059C311.143 398.418 307.89 401.623 307.89 403.036C307.89 403.73 312.597 403.376 313.243 403.376C315.127 403.376 316.585 404.672 318.086 405.673C322.278 408.472 319.02 409.151 319.02 412.99C319.02 417.905 316.991 422.722 313.073 426.006C306.856 431.219 303.898 419.067 298.374 417.329C294.877 416.228 291.772 412.564 288.264 412.564C282.909 412.564 274.67 415.388 274.67 407.035C274.67 403.987 278.405 400.911 280.957 399.633Z" stroke="black" stroke-width="5" stroke-linecap="round"/>
<path d="M413.361 621.259C391.621 620.844 401.102 698.699 404.75 706.096C408.398 713.493 410.64 713.44 413.361 708.141C417.256 705.168 420.387 700.232 419.928 693.824C420.571 691.194 421.868 688.227 424.987 688.227C428.856 688.227 428.554 692.059 428.809 695.493C429.302 702.155 429.704 706.799 431.769 713.201C433.14 717.451 436.277 723.751 440.704 725.58C446.858 728.122 446.964 722.781 448.921 718.378C449.44 717.209 451.855 709.931 454.536 712.016C458.011 714.719 460.144 720.131 461.587 724.073C464.77 732.766 465.737 742.197 468.799 750.984C471.67 759.221 478.123 771.841 486.507 775.851C498.334 781.507 500.555 761.728 500.555 753.676C500.555 739.259 519.817 749.827 524.241 745.403C527.25 740.388 520.981 732.113 524.241 728.978C525.999 724.961 532.169 722.004 533.818 717.937C535.587 713.574 535.502 704.428 538.554 701.037C542.283 696.893 549.981 705.525 553.356 698.776C555.845 693.798 557.715 688.049 557.715 682.467C557.715 679.202 556.535 675.905 556.747 672.725C554.652 665.42 558.421 649.184 563.959 650.443C569.497 651.701 575.75 653.324 581.29 654.21C594.109 651.669 580.594 625.14 570.745 626.018" stroke="black" stroke-width="5" stroke-linecap="round"/>
<path d="M127.189 115.108H120.285C120.307 114.192 120.19 113.382 119.934 112.679C119.678 111.965 119.295 111.358 118.783 110.857C118.283 110.356 117.67 109.978 116.946 109.722C116.221 109.456 115.406 109.323 114.501 109.323C112.754 109.323 111.15 109.76 109.691 110.633C108.231 111.507 107.001 112.775 105.999 114.437C104.998 116.088 104.305 118.085 103.922 120.429C103.549 122.688 103.57 124.579 103.986 126.102C104.401 127.626 105.136 128.776 106.191 129.554C107.256 130.321 108.583 130.704 110.17 130.704C111.15 130.704 112.082 130.582 112.967 130.337C113.851 130.081 114.655 129.719 115.38 129.25C116.115 128.771 116.754 128.19 117.297 127.508C117.851 126.827 118.283 126.054 118.592 125.191H125.543C125.106 126.693 124.424 128.142 123.497 129.538C122.581 130.933 121.447 132.18 120.094 133.277C118.741 134.364 117.201 135.227 115.475 135.866C113.75 136.505 111.859 136.825 109.803 136.825C106.83 136.825 104.279 136.143 102.148 134.779C100.028 133.416 98.4992 131.45 97.5617 128.883C96.6242 126.315 96.4485 123.22 97.0344 119.598C97.6203 116.093 98.7656 113.121 100.47 110.681C102.185 108.231 104.268 106.372 106.718 105.104C109.179 103.836 111.811 103.203 114.613 103.203C116.562 103.203 118.325 103.469 119.902 104.002C121.479 104.534 122.821 105.312 123.929 106.335C125.048 107.347 125.889 108.588 126.454 110.058C127.018 111.528 127.263 113.211 127.189 115.108ZM130.441 117.185L131.336 111.832H153.58L152.685 117.185H144.791L141.611 136.377H135.107L138.303 117.185H130.441ZM156.317 145.582C155.443 145.582 154.644 145.513 153.92 145.374C153.195 145.246 152.599 145.081 152.13 144.879L154.527 139.797C155.283 140.042 155.97 140.17 156.588 140.181C157.217 140.191 157.792 140.031 158.314 139.701C158.836 139.371 159.316 138.828 159.752 138.071L160.36 137.033L155.757 111.832H162.661L164.738 129.889H164.994L173.128 111.832H180.59L166.544 139.03C165.851 140.362 165.031 141.518 164.083 142.498C163.145 143.478 162.032 144.234 160.743 144.767C159.465 145.31 157.989 145.582 156.317 145.582ZM174.937 143.568L177.031 130.976H178.917C179.502 130.635 180.024 130.092 180.483 129.346C180.951 128.6 181.377 127.721 181.761 126.709C182.144 125.697 182.491 124.605 182.8 123.433C183.119 122.251 183.428 121.058 183.727 119.854L185.692 111.832H204.517L201.369 130.976H205.172L203.078 143.568H196.591L197.773 136.377H182.768L181.585 143.568H174.937ZM185.692 130.976H194.945L197.246 117.073H190.63L189.895 119.854C189.277 122.475 188.648 124.701 188.009 126.534C187.381 128.355 186.608 129.836 185.692 130.976ZM219.362 136.857C216.848 136.857 214.765 136.345 213.114 135.323C211.463 134.289 210.301 132.83 209.63 130.944C208.97 129.048 208.858 126.805 209.295 124.216C209.721 121.692 210.578 119.476 211.867 117.569C213.167 115.662 214.797 114.176 216.757 113.11C218.718 112.045 220.902 111.512 223.309 111.512C224.929 111.512 226.393 111.773 227.704 112.295C229.025 112.807 230.122 113.584 230.996 114.628C231.869 115.662 232.466 116.956 232.785 118.512C233.116 120.067 233.11 121.889 232.769 123.977L232.466 125.846H211.756L212.411 121.628H226.729C226.889 120.648 226.825 119.779 226.537 119.023C226.25 118.267 225.77 117.675 225.099 117.249C224.428 116.812 223.602 116.594 222.622 116.594C221.621 116.594 220.683 116.839 219.81 117.329C218.936 117.819 218.201 118.464 217.604 119.263C217.018 120.051 216.64 120.909 216.47 121.835L215.719 126.022C215.506 127.311 215.548 128.382 215.847 129.234C216.155 130.086 216.688 130.726 217.445 131.152C218.201 131.567 219.16 131.775 220.321 131.775C221.077 131.775 221.786 131.669 222.446 131.455C223.117 131.242 223.714 130.928 224.236 130.513C224.758 130.086 225.184 129.559 225.515 128.931L231.731 129.346C231.155 130.859 230.282 132.18 229.11 133.309C227.938 134.428 226.527 135.301 224.875 135.93C223.235 136.548 221.397 136.857 219.362 136.857ZM254.802 121.388L253.907 126.741H241.091L241.97 121.388H254.802ZM245.805 111.832L241.714 136.377H235.226L239.317 111.832H245.805ZM260.651 111.832L256.56 136.377H250.104L254.195 111.832H260.651ZM262.584 117.185L263.479 111.832H285.724L284.829 117.185H276.935L273.754 136.377H267.251L270.447 117.185H262.584ZM296.003 136.857C293.499 136.857 291.427 136.324 289.787 135.259C288.146 134.183 286.99 132.691 286.319 130.784C285.658 128.867 285.536 126.635 285.951 124.089C286.356 121.574 287.198 119.374 288.476 117.489C289.755 115.603 291.379 114.138 293.35 113.094C295.321 112.04 297.542 111.512 300.014 111.512C302.507 111.512 304.573 112.05 306.214 113.126C307.855 114.192 309.011 115.683 309.682 117.601C310.353 119.518 310.481 121.75 310.065 124.296C309.65 126.8 308.798 128.995 307.508 130.88C306.219 132.766 304.595 134.236 302.635 135.291C300.674 136.335 298.464 136.857 296.003 136.857ZM296.674 131.583C297.825 131.583 298.842 131.258 299.726 130.608C300.621 129.948 301.361 129.053 301.947 127.924C302.544 126.784 302.959 125.495 303.194 124.057C303.428 122.64 303.444 121.383 303.242 120.285C303.039 119.177 302.613 118.304 301.963 117.665C301.324 117.025 300.445 116.706 299.327 116.706C298.176 116.706 297.153 117.036 296.258 117.697C295.364 118.346 294.623 119.241 294.037 120.381C293.451 121.521 293.041 122.816 292.807 124.264C292.583 125.671 292.567 126.928 292.759 128.036C292.951 129.133 293.371 130.001 294.021 130.64C294.671 131.269 295.555 131.583 296.674 131.583ZM312.526 136.377L316.617 111.832H327.068C330.083 111.832 332.374 112.407 333.94 113.558C335.516 114.708 336.124 116.344 335.761 118.464C335.548 119.795 334.872 120.903 333.732 121.787C332.592 122.672 331.122 123.268 329.321 123.577C330.781 123.684 331.979 124.019 332.917 124.584C333.865 125.138 334.536 125.857 334.93 126.741C335.335 127.626 335.452 128.606 335.282 129.682C335.048 131.077 334.472 132.276 333.556 133.277C332.651 134.279 331.441 135.046 329.929 135.578C328.426 136.111 326.647 136.377 324.591 136.377H312.526ZM319.701 131.28H325.438C326.397 131.28 327.185 131.051 327.803 130.593C328.421 130.134 328.789 129.517 328.906 128.739C329.066 127.865 328.911 127.178 328.442 126.677C327.984 126.177 327.281 125.926 326.333 125.926H320.596L319.701 131.28ZM321.267 121.931H325.534C326.205 121.931 326.802 121.835 327.324 121.644C327.846 121.441 328.267 121.154 328.586 120.781C328.917 120.408 329.124 119.966 329.209 119.454C329.337 118.709 329.13 118.123 328.586 117.697C328.043 117.26 327.244 117.041 326.189 117.041H322.066L321.267 121.931ZM118.859 190.377L122.95 165.832H144.395L140.305 190.377H133.817L137.029 171.185H128.479L125.267 190.377H118.859ZM156.872 190.857C154.368 190.857 152.296 190.324 150.656 189.259C149.015 188.183 147.859 186.691 147.188 184.784C146.527 182.867 146.405 180.635 146.82 178.089C147.225 175.574 148.067 173.374 149.345 171.489C150.624 169.603 152.248 168.138 154.219 167.094C156.19 166.04 158.411 165.512 160.883 165.512C163.376 165.512 165.443 166.05 167.083 167.126C168.724 168.192 169.88 169.683 170.551 171.601C171.222 173.518 171.35 175.75 170.934 178.296C170.519 180.8 169.667 182.995 168.378 184.88C167.089 186.766 165.464 188.236 163.504 189.291C161.543 190.335 159.333 190.857 156.872 190.857ZM157.543 185.583C158.694 185.583 159.711 185.258 160.595 184.608C161.49 183.948 162.231 183.053 162.817 181.924C163.413 180.784 163.829 179.495 164.063 178.057C164.297 176.64 164.313 175.383 164.111 174.285C163.909 173.177 163.482 172.304 162.833 171.665C162.193 171.025 161.314 170.706 160.196 170.706C159.045 170.706 158.023 171.036 157.128 171.697C156.233 172.346 155.492 173.241 154.906 174.381C154.32 175.521 153.91 176.816 153.676 178.264C153.452 179.671 153.436 180.928 153.628 182.036C153.82 183.133 154.241 184.001 154.89 184.64C155.54 185.269 156.424 185.583 157.543 185.583ZM173.395 190.377L177.486 165.832H184.278L182.68 175.356H184.597L192.875 165.832H200.881L190.174 178.009L196.87 190.377H188.8L184.198 181.668H181.657L180.187 190.377H173.395ZM206.65 190.841C205.095 190.841 203.747 190.569 202.607 190.026C201.478 189.472 200.647 188.651 200.114 187.565C199.581 186.478 199.448 185.131 199.715 183.522C199.949 182.158 200.391 181.018 201.041 180.102C201.701 179.175 202.506 178.43 203.454 177.865C204.402 177.3 205.451 176.869 206.602 176.571C207.763 176.272 208.962 176.07 210.198 175.963C211.625 175.814 212.786 175.67 213.681 175.532C214.587 175.393 215.263 175.196 215.711 174.941C216.158 174.674 216.43 174.28 216.526 173.758V173.662C216.686 172.661 216.499 171.883 215.966 171.329C215.444 170.764 214.608 170.482 213.458 170.482C212.243 170.482 211.21 170.748 210.357 171.281C209.516 171.814 208.914 172.49 208.552 173.311L202.351 172.799C202.905 171.308 203.742 170.019 204.86 168.932C205.989 167.835 207.348 166.993 208.935 166.407C210.523 165.811 212.302 165.512 214.273 165.512C215.636 165.512 216.909 165.672 218.092 165.992C219.285 166.311 220.313 166.807 221.176 167.478C222.049 168.149 222.678 169.012 223.062 170.067C223.456 171.111 223.536 172.362 223.301 173.822L220.537 190.377H214.081L214.656 186.974H214.464C213.942 187.741 213.303 188.417 212.547 189.003C211.79 189.578 210.922 190.031 209.942 190.361C208.962 190.681 207.864 190.841 206.65 190.841ZM209.383 186.143C210.373 186.143 211.284 185.946 212.115 185.551C212.957 185.146 213.649 184.603 214.193 183.921C214.747 183.24 215.098 182.467 215.247 181.604L215.663 178.999C215.45 179.138 215.141 179.26 214.736 179.367C214.342 179.474 213.91 179.575 213.442 179.671C212.983 179.756 212.52 179.836 212.051 179.91C211.583 179.974 211.162 180.038 210.789 180.102C209.969 180.219 209.233 180.406 208.584 180.661C207.934 180.917 207.406 181.263 207.002 181.7C206.597 182.126 206.346 182.659 206.25 183.298C206.101 184.225 206.32 184.933 206.906 185.423C207.502 185.903 208.328 186.143 209.383 186.143ZM255.857 175.388L254.962 180.741H242.146L243.025 175.388H255.857ZM246.86 165.832L242.769 190.377H236.281L240.372 165.832H246.86ZM261.705 165.832L257.615 190.377H251.159L255.25 165.832H261.705ZM274.03 190.857C271.516 190.857 269.433 190.345 267.782 189.323C266.131 188.289 264.969 186.83 264.298 184.944C263.638 183.048 263.526 180.805 263.963 178.216C264.389 175.692 265.246 173.476 266.535 171.569C267.835 169.662 269.465 168.176 271.425 167.11C273.386 166.045 275.57 165.512 277.977 165.512C279.597 165.512 281.061 165.773 282.372 166.295C283.693 166.807 284.79 167.584 285.664 168.628C286.537 169.662 287.134 170.956 287.453 172.512C287.784 174.067 287.778 175.889 287.437 177.977L287.134 179.846H266.424L267.079 175.628H281.397C281.557 174.648 281.493 173.779 281.205 173.023C280.918 172.267 280.438 171.675 279.767 171.249C279.096 170.812 278.27 170.594 277.29 170.594C276.289 170.594 275.351 170.839 274.478 171.329C273.604 171.819 272.869 172.464 272.272 173.263C271.686 174.051 271.308 174.909 271.138 175.835L270.387 180.022C270.174 181.311 270.216 182.382 270.515 183.234C270.823 184.086 271.356 184.726 272.113 185.152C272.869 185.567 273.828 185.775 274.989 185.775C275.745 185.775 276.454 185.669 277.114 185.455C277.785 185.242 278.382 184.928 278.904 184.513C279.426 184.086 279.852 183.559 280.182 182.931L286.399 183.346C285.823 184.859 284.95 186.18 283.778 187.309C282.606 188.428 281.195 189.301 279.543 189.93C277.903 190.548 276.065 190.857 274.03 190.857ZM291.149 171.185L292.044 165.832H314.288L313.393 171.185H305.499L302.319 190.377H295.815L299.011 171.185H291.149Z" fill="black"/>
</svg>
