<svg width="628" height="930" viewBox="0 0 628 930" fill="none" xmlns="http://www.w3.org/2000/svg">
<ellipse cx="461.39" cy="499.639" rx="10.5028" ry="10.5167" fill="black"/>
<ellipse cx="515.874" cy="499.639" rx="10.5028" ry="10.5167" fill="black"/>
<path d="M471.614 536.888C473.782 544.826 480.747 557.811 489.203 545.273C492.997 550.701 501.413 556.428 506.779 536.888" stroke="black" stroke-width="5"/>
<path d="M498.561 519.005C490.225 514.136 483.511 516.977 481.195 519.005C485.34 521.562 489.334 527.507 489.334 527.38C489.334 525.905 495.667 521.251 498.561 519.005Z" fill="black" stroke="black" stroke-width="5"/>
<path d="M489.319 526.713V545.747" stroke="black" stroke-width="5"/>
<path d="M590.707 503.254C588.18 525.707 554.034 514.442 533.86 525.074" stroke="black" stroke-width="5"/>
<path d="M385.02 503.254C387.546 525.707 421.692 514.442 441.866 525.074" stroke="black" stroke-width="5"/>
<path d="M594.813 557.331C579.022 539.938 551.733 558.929 535.099 543.69" stroke="black" stroke-width="5"/>
<path d="M383.587 557.331C399.377 539.938 426.666 558.929 443.301 543.69" stroke="black" stroke-width="5"/>
<path d="M535.016 533.644L561.653 530.767H595.129" stroke="black" stroke-width="5"/>
<path d="M443.5 533.644L416.863 530.767H383.386" stroke="black" stroke-width="5"/>
<path d="M197.697 281.801C218.645 288.898 236.54 283.305 247.962 287.553C259.383 291.801 261.187 303.872 271.114 301.815C281.042 299.758 269.745 281.801 283.771 275.347C297.797 268.893 307.714 274.357 318.917 274.879C332.294 275.502 354.643 281.244 367.524 275.256C379.571 269.655 388.328 250.401 394.088 239.507C401.484 225.518 406.252 210.651 416.79 198.475C427.615 185.969 441.433 176.818 443.261 159.33C444.396 148.462 441.318 140.605 436.855 130.844C427.798 111.036 412.667 86.8597 392.393 76.8902C381.597 71.5818 369.917 68.2292 363.002 57.4592C358.322 50.1688 360.295 40.9687 356.785 33.312C346.575 11.0385 308.709 14.4625 289.715 15.3902C275.179 16.1002 257.729 19.649 243.557 14.9186C235.829 12.3391 229.796 6.50505 222.268 4.16551C196.481 -3.84793 143.497 24.0078 136.452 18.3143C129.406 12.6208 71.3862 14.4577 66.7539 62.6463C65.0928 84.1551 47.7951 97.957 24.5048 106.362C-0.24331 110.924 -5.77009 148.066 17.4773 160.651C35.2639 172.745 27.0197 190.234 33.3029 207.814C39.5861 225.394 52.5572 265.092 78.4992 265.092C87.5264 265.092 114.063 279.746 123.019 281.801C137.303 285.079 176.749 274.704 197.697 281.801Z" stroke="black" stroke-width="5" stroke-linecap="round"/>
<path d="M243.746 341.828C251.036 339.728 263.905 334.77 267.111 327.28C267.111 321.362 271.24 326.514 275.352 326.514C278.224 326.514 280.096 325.26 282.786 325.026C287.553 324.611 288.199 327.217 289.116 331.704C290.36 337.795 296.479 332.336 299.227 338C300.323 340.26 299.991 342.867 299.991 345.316C299.991 348.637 294.215 350.034 291.58 350.633C288.33 351.373 284.11 350.175 281.469 352.718C278.734 355.351 276.082 358.532 272.803 360.502C267.886 363.456 262.312 352.611 256.363 353.356C251.493 353.965 235.76 355.887 235.76 347.613C235.76 344.404 241.354 342.517 243.746 341.828Z" stroke="black" stroke-width="5" stroke-linecap="round"/>
<path d="M331.725 476.459C317.897 479.139 323.795 465.309 332.107 462.039C332.107 459.361 333.329 459.742 335.761 459.742C337.023 459.742 338.327 459.641 339.584 459.742C341.307 459.88 338.72 461.538 338.904 462.039C340.392 466.082 351.752 460.657 353.348 465.272C354.105 467.462 350.957 470.73 349.737 472.333C347.709 474.998 345.356 474.426 342.43 473.524C337.683 472.062 336.15 475.602 331.725 476.459Z" stroke="black" stroke-width="5" stroke-linecap="round"/>
<path d="M533.1 918.097C538.79 891.35 561.422 851.026 593.992 911.104" stroke="black" stroke-width="5"/>
<path d="M361.806 560.259C367.129 501.624 386.636 391.676 408.817 335.411C424.787 335.411 446.471 415.413 453.864 453.91H529.278C542.586 415.413 572.751 338.418 586.947 338.418C601.142 338.418 616.521 499.811 622.436 580.507C628.35 673.789 622.446 856.547 622.446 899.702C544.343 938.753 406.618 912.035 347.518 893.795C347.518 864.693 355.152 633.552 361.806 560.259Z" stroke="black" stroke-width="5"/>
<path d="M377.302 900.428C390.819 876.657 421.068 845.894 433.933 913.012" stroke="black" stroke-width="5"/>
<path d="M280.28 399.339C287.012 395.969 294.24 397.722 301.521 397.722C303.518 397.722 305.616 397.517 307.596 397.765C310.467 398.124 307.213 401.329 307.213 402.742C307.213 403.436 311.92 403.082 312.566 403.082C314.45 403.082 315.908 404.377 317.409 405.379C321.601 408.178 318.343 408.857 318.343 412.696C318.343 417.611 316.314 422.428 312.396 425.712C306.179 430.924 303.222 418.773 297.698 417.034C294.2 415.934 291.096 412.27 287.587 412.27C282.232 412.27 273.993 415.094 273.993 406.74C273.993 403.693 277.728 400.617 280.28 399.339Z" stroke="black" stroke-width="5" stroke-linecap="round"/>
<path d="M412.685 620.965C390.945 620.55 400.425 698.405 404.073 705.802C407.721 713.198 409.964 713.146 412.685 707.847C416.579 704.874 419.71 699.938 419.251 693.53C419.894 690.9 421.191 687.932 424.311 687.932C428.179 687.932 427.878 691.765 428.132 695.199C428.626 701.861 429.027 706.505 431.092 712.906C432.463 717.157 435.6 723.457 440.027 725.286C446.181 727.828 446.287 722.486 448.244 718.084C448.764 716.915 451.178 709.637 453.859 711.722C457.335 714.425 459.467 719.837 460.91 723.779C464.094 732.472 465.06 741.903 468.123 750.69C470.993 758.927 477.446 771.546 485.83 775.557C497.657 781.213 499.878 761.434 499.878 753.381C499.878 738.965 519.141 749.532 523.564 745.109C526.573 740.094 520.304 731.819 523.564 728.684C525.322 724.667 531.492 721.71 533.141 717.643C534.91 713.28 534.825 704.134 537.878 700.742C541.606 696.599 549.304 705.231 552.679 698.482C555.168 693.504 557.039 687.755 557.039 682.173C557.039 678.908 555.858 675.611 556.07 672.431C553.975 665.126 557.744 648.89 563.282 650.148C568.82 651.407 575.073 653.03 580.613 653.916C593.433 651.375 579.917 624.846 570.068 625.724" stroke="black" stroke-width="5" stroke-linecap="round"/>
<path d="M39.0849 164.153C36.6346 164.153 34.5252 163.743 32.7567 162.923C30.9883 162.102 29.6779 160.963 28.8256 159.503C27.984 158.044 27.7123 156.36 28.0106 154.453H34.8821C34.7756 155.242 34.8981 155.939 35.2496 156.547C35.6119 157.154 36.1498 157.623 36.8636 157.953C37.5881 158.283 38.4403 158.448 39.4204 158.448C40.5177 158.448 41.5298 158.241 42.4567 157.825C43.3835 157.41 44.1506 156.845 44.7578 156.131C45.3757 155.407 45.7539 154.592 45.8924 153.686C46.0309 152.823 45.9137 152.088 45.5408 151.481C45.168 150.863 44.5714 150.389 43.7511 150.059C42.9307 149.729 41.9133 149.563 40.6989 149.563H37.5188L38.3658 144.482H41.2422C42.3075 144.482 43.2823 144.285 44.1665 143.89C45.0614 143.496 45.8018 142.948 46.3878 142.245C46.9737 141.541 47.3413 140.726 47.4904 139.8C47.6182 139.043 47.5596 138.383 47.3146 137.818C47.0802 137.243 46.6648 136.801 46.0682 136.492C45.4822 136.172 44.7205 136.012 43.783 136.012C42.8349 136.012 41.9133 136.183 41.0185 136.524C40.1236 136.854 39.3672 137.328 38.7493 137.946C38.1314 138.564 37.7532 139.288 37.6147 140.119H31.0149C31.3452 138.234 32.1335 136.572 33.38 135.133C34.6371 133.695 36.1978 132.571 38.0621 131.762C39.9371 130.941 41.9613 130.531 44.1346 130.531C46.4464 130.531 48.3959 130.979 49.9833 131.873C51.5707 132.758 52.7212 133.93 53.435 135.389C54.1594 136.838 54.3832 138.415 54.1062 140.119C53.7972 141.994 52.9769 143.48 51.6452 144.578C50.3242 145.664 48.6783 146.367 46.7074 146.687V146.927C48.9126 147.225 50.5746 148.104 51.6932 149.563C52.8224 151.023 53.2166 152.797 52.8757 154.885C52.5881 156.696 51.805 158.299 50.5266 159.695C49.2482 161.09 47.6236 162.182 45.6527 162.971C43.6818 163.759 41.4925 164.153 39.0849 164.153Z" fill="black"/>
<path d="M63.3626 164.169C61.8073 164.169 60.4596 163.898 59.3197 163.354C58.1904 162.8 57.3595 161.98 56.8268 160.893C56.2941 159.807 56.1609 158.459 56.4273 156.85C56.6617 155.487 57.1038 154.347 57.7536 153.431C58.4141 152.504 59.2185 151.758 60.1666 151.193C61.1148 150.629 62.1641 150.197 63.3147 149.899C64.4759 149.601 65.6744 149.398 66.9102 149.292C68.3378 149.143 69.499 148.999 70.3939 148.86C71.2994 148.722 71.9759 148.525 72.4234 148.269C72.8708 148.003 73.1425 147.609 73.2384 147.086V146.991C73.3982 145.989 73.2117 145.211 72.6791 144.658C72.157 144.093 71.3207 143.811 70.1702 143.811C68.9557 143.811 67.9223 144.077 67.07 144.61C66.2284 145.142 65.6265 145.819 65.2643 146.639L59.064 146.128C59.618 144.636 60.4543 143.347 61.5729 142.261C62.7021 141.163 64.0604 140.322 65.6478 139.736C67.2352 139.139 69.0143 138.841 70.9852 138.841C72.3488 138.841 73.6219 139.001 74.8044 139.32C75.9976 139.64 77.0256 140.135 77.8886 140.806C78.7622 141.477 79.3907 142.34 79.7742 143.395C80.1684 144.439 80.2483 145.691 80.0139 147.15L77.2494 163.706H70.7934L71.3687 160.302H71.1769C70.6549 161.069 70.0157 161.746 69.2593 162.332C68.5029 162.907 67.6347 163.36 66.6546 163.69C65.6744 164.009 64.5771 164.169 63.3626 164.169ZM66.0952 159.471C67.086 159.471 67.9969 159.274 68.8278 158.88C69.6695 158.475 70.3619 157.932 70.9053 157.25C71.4592 156.568 71.8108 155.796 71.9599 154.933L72.3754 152.328C72.1624 152.466 71.8534 152.589 71.4486 152.696C71.0544 152.802 70.6229 152.903 70.1542 152.999C69.6961 153.084 69.2327 153.164 68.7639 153.239C68.2952 153.303 67.8744 153.367 67.5015 153.431C66.6812 153.548 65.9461 153.734 65.2962 153.99C64.6464 154.246 64.119 154.592 63.7142 155.029C63.3094 155.455 63.059 155.987 62.9631 156.627C62.814 157.553 63.0324 158.262 63.6183 158.752C64.2149 159.231 65.0406 159.471 66.0952 159.471Z" fill="black"/>
<path d="M79.4626 170.897L81.556 158.305H83.4417C84.0276 157.964 84.5496 157.42 85.0077 156.675C85.4765 155.929 85.9026 155.05 86.2861 154.038C86.6696 153.026 87.0159 151.934 87.3248 150.762C87.6444 149.579 87.9534 148.386 88.2517 147.182L90.2172 139.16H109.042L105.894 158.305H109.697L107.604 170.897H101.116L102.298 163.706H87.2929L86.1103 170.897H79.4626ZM90.2172 158.305H99.4697L101.771 144.402H95.1551L94.42 147.182C93.8021 149.803 93.1736 152.03 92.5343 153.862C91.9058 155.684 91.1334 157.165 90.2172 158.305Z" fill="black"/>
<path d="M119.701 164.169C118.145 164.169 116.797 163.898 115.658 163.354C114.528 162.8 113.697 161.98 113.165 160.893C112.632 159.807 112.499 158.459 112.765 156.85C113 155.487 113.442 154.347 114.092 153.431C114.752 152.504 115.556 151.758 116.505 151.193C117.453 150.629 118.502 150.197 119.653 149.899C120.814 149.601 122.012 149.398 123.248 149.292C124.676 149.143 125.837 148.999 126.732 148.86C127.637 148.722 128.314 148.525 128.761 148.269C129.209 148.003 129.48 147.609 129.576 147.086V146.991C129.736 145.989 129.55 145.211 129.017 144.658C128.495 144.093 127.659 143.811 126.508 143.811C125.294 143.811 124.26 144.077 123.408 144.61C122.566 145.142 121.964 145.819 121.602 146.639L115.402 146.128C115.956 144.636 116.792 143.347 117.911 142.261C119.04 141.163 120.398 140.322 121.986 139.736C123.573 139.139 125.352 138.841 127.323 138.841C128.687 138.841 129.96 139.001 131.142 139.32C132.335 139.64 133.364 140.135 134.226 140.806C135.1 141.477 135.729 142.34 136.112 143.395C136.506 144.439 136.586 145.691 136.352 147.15L133.587 163.706H127.131L127.707 160.302H127.515C126.993 161.069 126.354 161.746 125.597 162.332C124.841 162.907 123.973 163.36 122.992 163.69C122.012 164.009 120.915 164.169 119.701 164.169ZM122.433 159.471C123.424 159.471 124.335 159.274 125.166 158.88C126.007 158.475 126.7 157.932 127.243 157.25C127.797 156.568 128.149 155.796 128.298 154.933L128.713 152.328C128.5 152.466 128.191 152.589 127.786 152.696C127.392 152.802 126.961 152.903 126.492 152.999C126.034 153.084 125.571 153.164 125.102 153.239C124.633 153.303 124.212 153.367 123.839 153.431C123.019 153.548 122.284 153.734 121.634 153.99C120.984 154.246 120.457 154.592 120.052 155.029C119.647 155.455 119.397 155.987 119.301 156.627C119.152 157.553 119.37 158.262 119.956 158.752C120.553 159.231 121.378 159.471 122.433 159.471Z" fill="black"/>
<path d="M158.492 148.716L157.597 154.07H144.781L145.66 148.716H158.492ZM149.495 139.16L145.405 163.706H138.917L143.008 139.16H149.495ZM164.341 139.16L160.25 163.706H153.794L157.885 139.16H164.341Z" fill="black"/>
<path d="M173.581 154.725L185.007 139.16H191.735L187.644 163.706H181.14L183.745 148.093L172.335 163.706H165.591L169.682 139.16H176.17L173.581 154.725Z" fill="black"/>
<path d="M201.135 154.725L212.561 139.16H219.289L215.198 163.706H208.694L211.299 148.093L199.889 163.706H193.145L197.236 139.16H203.724L201.135 154.725ZM212.785 130.595H217.531C217.201 132.534 216.226 134.095 214.606 135.277C212.987 136.46 210.968 137.051 208.55 137.051C206.121 137.051 204.294 136.46 203.069 135.277C201.844 134.095 201.396 132.534 201.726 130.595H206.425C206.307 131.33 206.441 131.991 206.824 132.577C207.208 133.162 207.98 133.455 209.141 133.455C210.281 133.455 211.139 133.168 211.714 132.593C212.289 132.017 212.646 131.351 212.785 130.595Z" fill="black"/>
<path d="M231.114 163.706L235.205 139.16H256.65L252.559 163.706H246.071L249.283 144.514H240.734L237.522 163.706H231.114Z" fill="black"/>
<path d="M269.127 164.185C266.623 164.185 264.551 163.653 262.91 162.587C261.27 161.511 260.114 160.02 259.443 158.113C258.782 156.195 258.66 153.963 259.075 151.417C259.48 148.903 260.322 146.703 261.6 144.817C262.878 142.932 264.503 141.467 266.474 140.423C268.445 139.368 270.666 138.841 273.138 138.841C275.631 138.841 277.697 139.379 279.338 140.455C280.979 141.52 282.134 143.012 282.806 144.929C283.477 146.847 283.605 149.079 283.189 151.625C282.774 154.128 281.921 156.323 280.632 158.209C279.343 160.094 277.719 161.564 275.758 162.619C273.798 163.663 271.588 164.185 269.127 164.185ZM269.798 158.912C270.948 158.912 271.966 158.587 272.85 157.937C273.745 157.276 274.485 156.382 275.071 155.252C275.668 154.112 276.083 152.823 276.318 151.385C276.552 149.968 276.568 148.711 276.366 147.614C276.163 146.506 275.737 145.632 275.087 144.993C274.448 144.354 273.569 144.034 272.45 144.034C271.3 144.034 270.277 144.365 269.382 145.025C268.487 145.675 267.747 146.57 267.161 147.71C266.575 148.85 266.165 150.144 265.931 151.593C265.707 152.999 265.691 154.256 265.883 155.364C266.074 156.461 266.495 157.33 267.145 157.969C267.795 158.598 268.679 158.912 269.798 158.912Z" fill="black"/>
<path d="M285.65 163.706L289.741 139.16H296.532L294.934 148.685H296.852L305.13 139.16H313.136L302.429 151.337L309.125 163.706H301.055L296.453 154.997H293.912L292.442 163.706H285.65Z" fill="black"/>
<path d="M318.905 164.169C317.349 164.169 316.002 163.898 314.862 163.354C313.732 162.8 312.901 161.98 312.369 160.893C311.836 159.807 311.703 158.459 311.969 156.85C312.204 155.487 312.646 154.347 313.296 153.431C313.956 152.504 314.76 151.758 315.709 151.193C316.657 150.629 317.706 150.197 318.857 149.899C320.018 149.601 321.216 149.398 322.452 149.292C323.88 149.143 325.041 148.999 325.936 148.86C326.841 148.722 327.518 148.525 327.965 148.269C328.413 148.003 328.684 147.609 328.78 147.086V146.991C328.94 145.989 328.754 145.211 328.221 144.658C327.699 144.093 326.863 143.811 325.712 143.811C324.498 143.811 323.464 144.077 322.612 144.61C321.77 145.142 321.168 145.819 320.806 146.639L314.606 146.128C315.16 144.636 315.996 143.347 317.115 142.261C318.244 141.163 319.602 140.322 321.19 139.736C322.777 139.139 324.556 138.841 326.527 138.841C327.891 138.841 329.164 139.001 330.346 139.32C331.54 139.64 332.568 140.135 333.431 140.806C334.304 141.477 334.933 142.34 335.316 143.395C335.71 144.439 335.79 145.691 335.556 147.15L332.791 163.706H326.335L326.911 160.302H326.719C326.197 161.069 325.558 161.746 324.801 162.332C324.045 162.907 323.177 163.36 322.197 163.69C321.216 164.009 320.119 164.169 318.905 164.169ZM321.637 159.471C322.628 159.471 323.539 159.274 324.37 158.88C325.211 158.475 325.904 157.932 326.447 157.25C327.001 156.568 327.353 155.796 327.502 154.933L327.917 152.328C327.704 152.466 327.395 152.589 326.991 152.696C326.596 152.802 326.165 152.903 325.696 152.999C325.238 153.084 324.775 153.164 324.306 153.239C323.837 153.303 323.416 153.367 323.043 153.431C322.223 153.548 321.488 153.734 320.838 153.99C320.188 154.246 319.661 154.592 319.256 155.029C318.851 155.455 318.601 155.987 318.505 156.627C318.356 157.553 318.574 158.262 319.16 158.752C319.757 159.231 320.583 159.471 321.637 159.471Z" fill="black"/>
<path d="M368.111 148.716L367.217 154.07H354.4L355.279 148.716H368.111ZM359.115 139.16L355.024 163.706H348.536L352.627 139.16H359.115ZM373.96 139.16L369.869 163.706H363.413L367.504 139.16H373.96Z" fill="black"/>
<path d="M386.285 164.185C383.771 164.185 381.688 163.674 380.037 162.651C378.385 161.618 377.224 160.158 376.553 158.273C375.892 156.376 375.781 154.134 376.217 151.545C376.643 149.02 377.501 146.804 378.79 144.897C380.09 142.99 381.72 141.504 383.68 140.439C385.64 139.373 387.824 138.841 390.232 138.841C391.851 138.841 393.316 139.102 394.626 139.624C395.947 140.135 397.045 140.913 397.918 141.957C398.792 142.99 399.388 144.285 399.708 145.84C400.038 147.395 400.033 149.217 399.692 151.305L399.388 153.175H378.678L379.333 148.956H393.652C393.811 147.976 393.748 147.108 393.46 146.351C393.172 145.595 392.693 145.004 392.022 144.578C391.35 144.141 390.525 143.922 389.545 143.922C388.543 143.922 387.606 144.167 386.732 144.658C385.859 145.148 385.124 145.792 384.527 146.591C383.941 147.379 383.563 148.237 383.392 149.164L382.641 153.351C382.428 154.64 382.471 155.71 382.769 156.563C383.078 157.415 383.611 158.054 384.367 158.48C385.124 158.896 386.082 159.104 387.244 159.104C388 159.104 388.708 158.997 389.369 158.784C390.04 158.571 390.637 158.257 391.159 157.841C391.681 157.415 392.107 156.888 392.437 156.259L398.653 156.675C398.078 158.187 397.205 159.508 396.033 160.638C394.861 161.756 393.449 162.63 391.798 163.258C390.157 163.876 388.32 164.185 386.285 164.185Z" fill="black"/>
<path d="M403.403 144.514L404.298 139.16H426.543L425.648 144.514H417.754L414.574 163.706H408.07L411.266 144.514H403.403Z" fill="black"/>
</svg>
