<svg width="628" height="930" viewBox="0 0 628 930" fill="none" xmlns="http://www.w3.org/2000/svg">
<ellipse cx="461.687" cy="500.307" rx="10.5028" ry="10.5167" fill="black"/>
<ellipse cx="516.171" cy="500.307" rx="10.5028" ry="10.5167" fill="black"/>
<path d="M471.911 537.557C474.079 545.494 481.044 558.479 489.499 545.941C493.294 551.369 501.71 557.096 507.076 537.557" stroke="black" stroke-width="5"/>
<path d="M498.858 519.673C490.522 514.804 483.808 517.645 481.492 519.673C485.637 522.231 489.631 528.175 489.631 528.048C489.631 526.573 495.964 521.919 498.858 519.673Z" fill="black" stroke="black" stroke-width="5"/>
<path d="M489.616 527.381V546.415" stroke="black" stroke-width="5"/>
<path d="M591.004 503.922C588.477 526.375 554.331 515.111 534.157 525.743" stroke="black" stroke-width="5"/>
<path d="M385.317 503.922C387.843 526.375 421.989 515.111 442.163 525.743" stroke="black" stroke-width="5"/>
<path d="M595.11 557.999C579.319 540.606 552.03 559.597 535.396 544.358" stroke="black" stroke-width="5"/>
<path d="M383.883 557.999C399.674 540.606 426.963 559.597 443.598 544.358" stroke="black" stroke-width="5"/>
<path d="M535.312 534.312L561.95 531.435H595.426" stroke="black" stroke-width="5"/>
<path d="M443.797 534.312L417.16 531.435H383.683" stroke="black" stroke-width="5"/>
<path d="M197.994 282.469C218.942 289.566 236.837 283.973 248.258 288.221C259.68 292.469 261.484 304.54 271.411 302.483C281.339 300.426 270.042 282.469 284.068 276.015C298.093 269.561 308.011 275.025 319.214 275.547C332.591 276.17 354.94 281.913 367.821 275.924C379.868 270.323 388.625 251.07 394.385 240.175C401.781 226.186 406.549 211.319 417.087 199.144C427.912 186.637 441.73 177.486 443.557 159.999C444.693 149.13 441.615 141.273 437.152 131.512C428.095 111.704 412.964 87.5278 392.69 77.5584C381.894 72.25 370.214 68.8973 363.299 58.1274C358.619 50.8369 360.592 41.6368 357.082 33.9801C346.872 11.7067 309.005 15.1306 290.012 16.0584C275.476 16.7684 258.026 20.3171 243.854 15.5867C236.126 13.0073 230.093 7.1732 222.565 4.83366C196.778 -3.17978 143.794 24.676 136.749 18.9824C129.703 13.2889 71.6831 15.1258 67.0507 63.3144C65.3897 84.8232 48.092 98.6251 24.8016 107.03C0.0535648 111.592 -5.47322 148.734 17.7742 161.319C35.5608 173.413 27.3165 190.902 33.5998 208.482C39.883 226.062 52.8541 265.76 78.7961 265.76C87.8233 265.76 114.36 280.414 123.316 282.469C137.6 285.747 177.046 275.372 197.994 282.469Z" stroke="black" stroke-width="5" stroke-linecap="round"/>
<path d="M244.043 342.496C251.333 340.396 264.202 335.438 267.408 327.948C267.408 322.03 271.537 327.183 275.649 327.183C278.521 327.183 280.393 325.928 283.083 325.694C287.85 325.279 288.496 327.885 289.413 332.372C290.657 338.463 296.776 333.004 299.524 338.668C300.62 340.928 300.288 343.536 300.288 345.984C300.288 349.305 294.512 350.702 291.877 351.302C288.627 352.041 284.407 350.843 281.766 353.386C279.031 356.019 276.379 359.2 273.1 361.17C268.183 364.124 262.609 353.279 256.66 354.024C251.79 354.634 236.057 356.555 236.057 348.281C236.057 345.072 241.651 343.185 244.043 342.496Z" stroke="black" stroke-width="5" stroke-linecap="round"/>
<path d="M332.022 477.127C318.194 479.807 324.092 465.977 332.404 462.707C332.404 460.029 333.626 460.41 336.057 460.41C337.319 460.41 338.624 460.309 339.881 460.41C341.604 460.548 339.017 462.206 339.201 462.707C340.689 466.75 352.049 461.325 353.645 465.94C354.402 468.13 351.254 471.398 350.034 473.001C348.006 475.666 345.653 475.094 342.727 474.192C337.98 472.73 336.447 476.27 332.022 477.127Z" stroke="black" stroke-width="5" stroke-linecap="round"/>
<path d="M533.397 918.765C539.087 892.019 561.718 851.694 594.289 911.772" stroke="black" stroke-width="5"/>
<path d="M362.103 560.927C367.426 502.293 386.933 392.345 409.114 336.079C425.084 336.079 446.768 416.081 454.161 454.578H529.575C542.883 416.081 573.048 339.087 587.244 339.087C601.439 339.087 616.818 500.479 622.732 581.175C628.647 674.457 622.742 857.215 622.742 900.37C544.64 939.421 406.914 912.703 347.814 894.463C347.815 865.362 355.449 634.22 362.103 560.927Z" stroke="black" stroke-width="5"/>
<path d="M377.599 901.096C391.115 877.325 421.365 846.562 434.229 913.68" stroke="black" stroke-width="5"/>
<path d="M280.577 400.007C287.309 396.637 294.537 398.39 301.818 398.39C303.815 398.39 305.913 398.185 307.893 398.433C310.763 398.792 307.51 401.997 307.51 403.41C307.51 404.104 312.217 403.75 312.863 403.75C314.747 403.75 316.205 405.045 317.706 406.047C321.898 408.846 318.64 409.525 318.64 413.364C318.64 418.279 316.611 423.096 312.693 426.38C306.476 431.592 303.519 419.441 297.995 417.703C294.497 416.602 291.392 412.938 287.884 412.938C282.529 412.938 274.29 415.762 274.29 407.408C274.29 404.361 278.025 401.285 280.577 400.007Z" stroke="black" stroke-width="5" stroke-linecap="round"/>
<path d="M412.981 621.633C391.241 621.218 400.722 699.073 404.37 706.47C408.018 713.866 410.26 713.814 412.982 708.515C416.876 705.542 420.007 700.606 419.548 694.198C420.191 691.568 421.488 688.6 424.607 688.6C428.476 688.6 428.174 692.433 428.429 695.867C428.922 702.529 429.324 707.173 431.389 713.574C432.76 717.825 435.897 724.125 440.324 725.954C446.478 728.496 446.584 723.155 448.541 718.752C449.06 717.583 451.475 710.305 454.156 712.39C457.632 715.093 459.764 720.505 461.207 724.447C464.391 733.14 465.357 742.571 468.419 751.358C471.29 759.595 477.743 772.215 486.127 776.225C497.954 781.881 500.175 762.102 500.175 754.049C500.175 739.633 519.437 750.2 523.861 745.777C526.87 740.762 520.601 732.487 523.861 729.352C525.619 725.335 531.789 722.378 533.438 718.311C535.207 713.948 535.122 704.802 538.174 701.41C541.903 697.267 549.601 705.899 552.976 699.15C555.465 694.172 557.335 688.423 557.335 682.841C557.335 679.576 556.155 676.279 556.367 673.099C554.272 665.794 558.041 649.558 563.579 650.817C569.117 652.075 575.37 653.698 580.91 654.584C593.729 652.043 580.214 625.514 570.365 626.392" stroke="black" stroke-width="5" stroke-linecap="round"/>
<path d="M160.431 127.755C159.834 131.25 158.678 134.217 156.963 136.656C155.258 139.096 153.176 140.95 150.715 142.217C148.265 143.485 145.622 144.119 142.789 144.119C139.816 144.119 137.254 143.442 135.102 142.089C132.961 140.737 131.411 138.782 130.452 136.225C129.493 133.657 129.312 130.563 129.909 126.94C130.484 123.435 131.629 120.463 133.344 118.023C135.06 115.573 137.153 113.709 139.625 112.43C142.096 111.141 144.754 110.497 147.599 110.497C150.55 110.497 153.096 111.179 155.237 112.542C157.389 113.906 158.939 115.877 159.887 118.455C160.846 121.022 161.027 124.123 160.431 127.755ZM153.543 126.94C153.916 124.692 153.9 122.807 153.495 121.283C153.101 119.749 152.377 118.588 151.322 117.8C150.267 117.011 148.936 116.617 147.327 116.617C145.58 116.617 143.977 117.054 142.517 117.928C141.068 118.801 139.843 120.069 138.842 121.731C137.851 123.382 137.164 125.39 136.78 127.755C136.397 130.014 136.407 131.9 136.812 133.412C137.228 134.925 137.968 136.07 139.033 136.848C140.109 137.615 141.446 137.999 143.044 137.999C144.781 137.999 146.368 137.572 147.806 136.72C149.255 135.857 150.475 134.605 151.466 132.965C152.457 131.314 153.149 129.305 153.543 126.94Z" fill="black"/>
<path d="M164.693 124.479L165.588 119.126H187.833L186.938 124.479H179.044L175.864 143.672H169.36L172.556 124.479H164.693Z" fill="black"/>
<path d="M187.917 143.672L192.007 119.126H202.458C205.473 119.126 207.764 119.701 209.33 120.852C210.907 122.002 211.514 123.638 211.152 125.758C210.939 127.089 210.262 128.197 209.122 129.082C207.982 129.966 206.512 130.563 204.712 130.871C206.171 130.978 207.37 131.314 208.307 131.878C209.255 132.432 209.926 133.151 210.321 134.036C210.725 134.92 210.843 135.9 210.672 136.976C210.438 138.371 209.863 139.57 208.946 140.571C208.041 141.573 206.832 142.34 205.319 142.873C203.817 143.405 202.038 143.672 199.981 143.672H187.917ZM195.092 138.574H200.828C201.787 138.574 202.576 138.345 203.193 137.887C203.811 137.429 204.179 136.811 204.296 136.033C204.456 135.159 204.301 134.472 203.833 133.972C203.375 133.471 202.671 133.221 201.723 133.221H195.986L195.092 138.574ZM196.658 129.226H200.924C201.595 129.226 202.192 129.13 202.714 128.938C203.236 128.735 203.657 128.448 203.977 128.075C204.307 127.702 204.515 127.26 204.6 126.749C204.728 126.003 204.52 125.417 203.977 124.991C203.433 124.554 202.634 124.336 201.579 124.336H197.457L196.658 129.226Z" fill="black"/>
<path d="M224.962 144.151C222.448 144.151 220.365 143.64 218.714 142.617C217.063 141.583 215.902 140.124 215.231 138.238C214.57 136.342 214.458 134.099 214.895 131.511C215.321 128.986 216.179 126.77 217.468 124.863C218.767 122.956 220.397 121.47 222.358 120.404C224.318 119.339 226.502 118.806 228.909 118.806C230.529 118.806 231.994 119.067 233.304 119.589C234.625 120.101 235.722 120.879 236.596 121.923C237.47 122.956 238.066 124.25 238.386 125.806C238.716 127.361 238.711 129.183 238.37 131.271L238.066 133.141H217.356L218.011 128.922H232.329C232.489 127.942 232.425 127.074 232.137 126.317C231.85 125.561 231.37 124.969 230.699 124.543C230.028 124.107 229.202 123.888 228.222 123.888C227.221 123.888 226.283 124.133 225.41 124.623C224.536 125.113 223.801 125.758 223.205 126.557C222.619 127.345 222.24 128.203 222.07 129.13L221.319 133.316C221.106 134.605 221.148 135.676 221.447 136.528C221.756 137.381 222.288 138.02 223.045 138.446C223.801 138.862 224.76 139.069 225.921 139.069C226.678 139.069 227.386 138.963 228.047 138.75C228.718 138.537 229.314 138.222 229.836 137.807C230.358 137.381 230.784 136.853 231.115 136.225L237.331 136.64C236.756 138.153 235.882 139.474 234.71 140.603C233.538 141.722 232.127 142.596 230.476 143.224C228.835 143.842 226.997 144.151 224.962 144.151Z" fill="black"/>
<path d="M242.081 124.479L242.976 119.126H265.22L264.325 124.479H256.431L253.251 143.672H246.747L249.943 124.479H242.081Z" fill="black"/>
<path d="M275.5 144.151C272.996 144.151 270.924 143.618 269.283 142.553C267.643 141.477 266.487 139.985 265.816 138.078C265.155 136.161 265.033 133.929 265.448 131.383C265.853 128.869 266.694 126.669 267.973 124.783C269.251 122.897 270.876 121.433 272.847 120.389C274.818 119.334 277.039 118.806 279.511 118.806C282.003 118.806 284.07 119.344 285.711 120.42C287.351 121.486 288.507 122.977 289.178 124.895C289.85 126.813 289.977 129.044 289.562 131.591C289.147 134.094 288.294 136.289 287.005 138.174C285.716 140.06 284.091 141.53 282.131 142.585C280.171 143.629 277.96 144.151 275.5 144.151ZM276.171 138.877C277.321 138.877 278.339 138.553 279.223 137.903C280.118 137.242 280.858 136.347 281.444 135.218C282.041 134.078 282.456 132.789 282.691 131.351C282.925 129.934 282.941 128.677 282.739 127.58C282.536 126.472 282.11 125.598 281.46 124.959C280.821 124.32 279.942 124 278.823 124C277.673 124 276.65 124.33 275.755 124.991C274.86 125.641 274.12 126.536 273.534 127.675C272.948 128.815 272.538 130.11 272.303 131.559C272.08 132.965 272.064 134.222 272.256 135.33C272.447 136.427 272.868 137.295 273.518 137.935C274.168 138.563 275.052 138.877 276.171 138.877Z" fill="black"/>
<path d="M292.023 143.672L296.114 119.126H306.565C309.58 119.126 311.87 119.701 313.436 120.852C315.013 122.002 315.62 123.638 315.258 125.758C315.045 127.089 314.368 128.197 313.229 129.082C312.089 129.966 310.618 130.563 308.818 130.871C310.278 130.978 311.476 131.314 312.414 131.878C313.362 132.432 314.033 133.151 314.427 134.036C314.832 134.92 314.949 135.9 314.779 136.976C314.544 138.371 313.969 139.57 313.053 140.571C312.147 141.573 310.938 142.34 309.425 142.873C307.923 143.405 306.144 143.672 304.088 143.672H292.023ZM299.198 138.574H304.935C305.894 138.574 306.682 138.345 307.3 137.887C307.918 137.429 308.285 136.811 308.403 136.033C308.562 135.159 308.408 134.472 307.939 133.972C307.481 133.471 306.778 133.221 305.83 133.221H300.093L299.198 138.574ZM300.764 129.226H305.031C305.702 129.226 306.299 129.13 306.821 128.938C307.343 128.735 307.763 128.448 308.083 128.075C308.413 127.702 308.621 127.26 308.706 126.749C308.834 126.003 308.626 125.417 308.083 124.991C307.54 124.554 306.741 124.336 305.686 124.336H301.563L300.764 129.226Z" fill="black"/>
<path d="M125.053 197.672L129.144 173.126H150.589L146.498 197.672H140.01L143.222 178.479H134.673L131.461 197.672H125.053Z" fill="black"/>
<path d="M163.065 198.151C160.562 198.151 158.49 197.618 156.849 196.553C155.209 195.477 154.053 193.985 153.381 192.078C152.721 190.161 152.598 187.929 153.014 185.383C153.419 182.869 154.26 180.669 155.539 178.783C156.817 176.897 158.442 175.433 160.413 174.389C162.384 173.334 164.605 172.806 167.076 172.806C169.569 172.806 171.636 173.344 173.277 174.42C174.917 175.486 176.073 176.977 176.744 178.895C177.416 180.813 177.543 183.044 177.128 185.591C176.712 188.094 175.86 190.289 174.571 192.174C173.282 194.06 171.657 195.53 169.697 196.585C167.737 197.629 165.526 198.151 163.065 198.151ZM163.737 192.877C164.887 192.877 165.905 192.553 166.789 191.903C167.684 191.242 168.424 190.347 169.01 189.218C169.607 188.078 170.022 186.789 170.256 185.351C170.491 183.934 170.507 182.677 170.304 181.58C170.102 180.472 169.676 179.598 169.026 178.959C168.387 178.32 167.508 178 166.389 178C165.239 178 164.216 178.33 163.321 178.991C162.426 179.641 161.686 180.536 161.1 181.675C160.514 182.815 160.104 184.11 159.869 185.559C159.646 186.965 159.63 188.222 159.821 189.33C160.013 190.427 160.434 191.295 161.084 191.935C161.734 192.563 162.618 192.877 163.737 192.877Z" fill="black"/>
<path d="M179.589 197.672L183.68 173.126H190.471L188.873 182.65H190.791L199.069 173.126H207.075L196.368 185.303L203.064 197.672H194.994L190.391 188.962H187.851L186.38 197.672H179.589Z" fill="black"/>
<path d="M212.843 198.135C211.288 198.135 209.94 197.863 208.801 197.32C207.671 196.766 206.84 195.946 206.308 194.859C205.775 193.772 205.642 192.425 205.908 190.816C206.142 189.452 206.585 188.313 207.234 187.396C207.895 186.469 208.699 185.724 209.647 185.159C210.596 184.594 211.645 184.163 212.796 183.865C213.957 183.566 215.155 183.364 216.391 183.257C217.819 183.108 218.98 182.964 219.875 182.826C220.78 182.688 221.457 182.49 221.904 182.235C222.352 181.968 222.623 181.574 222.719 181.052V180.956C222.879 179.955 222.693 179.177 222.16 178.623C221.638 178.059 220.802 177.776 219.651 177.776C218.437 177.776 217.403 178.043 216.551 178.575C215.709 179.108 215.107 179.784 214.745 180.605L208.545 180.093C209.099 178.602 209.935 177.313 211.054 176.226C212.183 175.129 213.541 174.287 215.129 173.701C216.716 173.105 218.495 172.806 220.466 172.806C221.83 172.806 223.103 172.966 224.285 173.286C225.478 173.605 226.506 174.101 227.369 174.772C228.243 175.443 228.872 176.306 229.255 177.361C229.649 178.405 229.729 179.657 229.495 181.116L226.73 197.672H220.274L220.85 194.268H220.658C220.136 195.035 219.497 195.711 218.74 196.297C217.984 196.873 217.115 197.325 216.135 197.656C215.155 197.975 214.058 198.135 212.843 198.135ZM215.576 193.437C216.567 193.437 217.478 193.24 218.309 192.846C219.15 192.441 219.843 191.897 220.386 191.216C220.94 190.534 221.292 189.761 221.441 188.898L221.856 186.294C221.643 186.432 221.334 186.555 220.929 186.661C220.535 186.768 220.104 186.869 219.635 186.965C219.177 187.05 218.714 187.13 218.245 187.205C217.776 187.268 217.355 187.332 216.982 187.396C216.162 187.514 215.427 187.7 214.777 187.956C214.127 188.211 213.6 188.558 213.195 188.994C212.79 189.42 212.54 189.953 212.444 190.592C212.295 191.519 212.513 192.228 213.099 192.718C213.696 193.197 214.521 193.437 215.576 193.437Z" fill="black"/>
<path d="M262.05 182.682L261.155 188.036H248.339L249.218 182.682H262.05ZM253.053 173.126L248.963 197.672H242.475L246.566 173.126H253.053ZM267.899 173.126L263.808 197.672H257.352L261.443 173.126H267.899Z" fill="black"/>
<path d="M280.224 198.151C277.709 198.151 275.627 197.64 273.975 196.617C272.324 195.583 271.163 194.124 270.492 192.238C269.831 190.342 269.719 188.099 270.156 185.511C270.582 182.986 271.44 180.77 272.729 178.863C274.029 176.956 275.659 175.47 277.619 174.404C279.579 173.339 281.763 172.806 284.171 172.806C285.79 172.806 287.255 173.067 288.565 173.589C289.886 174.101 290.984 174.879 291.857 175.923C292.731 176.956 293.327 178.25 293.647 179.806C293.977 181.361 293.972 183.183 293.631 185.271L293.327 187.141H272.617L273.272 182.922H287.59C287.75 181.942 287.686 181.074 287.399 180.317C287.111 179.561 286.632 178.969 285.96 178.543C285.289 178.107 284.464 177.888 283.484 177.888C282.482 177.888 281.545 178.133 280.671 178.623C279.798 179.113 279.062 179.758 278.466 180.557C277.88 181.345 277.502 182.203 277.331 183.13L276.58 187.316C276.367 188.605 276.41 189.676 276.708 190.528C277.017 191.381 277.55 192.02 278.306 192.446C279.062 192.862 280.021 193.069 281.182 193.069C281.939 193.069 282.647 192.963 283.308 192.75C283.979 192.537 284.576 192.222 285.098 191.807C285.62 191.381 286.046 190.853 286.376 190.225L292.592 190.64C292.017 192.153 291.143 193.474 289.971 194.603C288.8 195.722 287.388 196.596 285.737 197.224C284.096 197.842 282.258 198.151 280.224 198.151Z" fill="black"/>
<path d="M297.342 178.479L298.237 173.126H320.482L319.587 178.479H311.692L308.512 197.672H302.009L305.205 178.479H297.342Z" fill="black"/>
</svg>
