<svg width="628" height="930" viewBox="0 0 628 930" fill="none" xmlns="http://www.w3.org/2000/svg">
<path d="M86.3279 131.547L85.3691 137.252H70.5716L66.0971 164.274H59.1777L64.611 131.547H86.3279Z" fill="black"/>
<path d="M81.1624 173.479L86.8193 139.729H93.531L92.8438 143.852H93.1475C93.5523 143.191 94.0903 142.52 94.7615 141.838C95.4433 141.146 96.2902 140.571 97.3023 140.112C98.3144 139.644 99.5022 139.409 100.866 139.409C102.666 139.409 104.238 139.878 105.58 140.816C106.922 141.742 107.892 143.143 108.488 145.018C109.096 146.883 109.165 149.221 108.696 152.034C108.249 154.772 107.423 157.083 106.219 158.969C105.026 160.844 103.593 162.266 101.921 163.236C100.259 164.194 98.4955 164.674 96.6311 164.674C95.3101 164.674 94.2235 164.456 93.3712 164.019C92.5296 163.582 91.8744 163.033 91.4056 162.373C90.9369 161.702 90.6066 161.025 90.4149 160.343H90.1592L87.9859 173.479H81.1624ZM91.4376 152.002C91.2032 153.461 91.1926 154.734 91.4056 155.821C91.6293 156.908 92.0768 157.755 92.748 158.362C93.4191 158.958 94.3034 159.257 95.4007 159.257C96.5086 159.257 97.4941 158.953 98.357 158.346C99.2199 157.728 99.939 156.876 100.514 155.789C101.09 154.692 101.5 153.429 101.745 152.002C101.968 150.585 101.974 149.338 101.761 148.262C101.548 147.186 101.111 146.345 100.45 145.737C99.7899 145.13 98.895 144.827 97.7657 144.827C96.6684 144.827 95.683 145.12 94.8094 145.705C93.9465 146.291 93.2274 147.122 92.6521 148.198C92.0768 149.274 91.672 150.542 91.4376 152.002Z" fill="black"/>
<path d="M113.079 173.479C112.205 173.479 111.406 173.41 110.682 173.271C109.957 173.143 109.361 172.978 108.892 172.776L111.289 167.694C112.045 167.939 112.732 168.067 113.35 168.078C113.979 168.088 114.554 167.929 115.076 167.598C115.598 167.268 116.078 166.725 116.514 165.968L117.122 164.93L112.519 139.729H119.423L121.5 157.786H121.756L129.89 139.729H137.352L123.306 166.927C122.613 168.259 121.793 169.415 120.845 170.395C119.907 171.375 118.794 172.131 117.505 172.664C116.227 173.207 114.751 173.479 113.079 173.479Z" fill="black"/>
<path d="M136.793 164.274L140.884 139.729H162.329L158.238 164.274H151.751L154.963 145.082H146.413L143.201 164.274H136.793Z" fill="black"/>
<path d="M163.732 164.274L167.823 139.729H189.268L185.177 164.274H178.689L181.901 145.082H173.352L170.14 164.274H163.732Z" fill="black"/>
<path d="M201.085 164.274L205.176 139.729H226.621L222.53 164.274H216.043L219.255 145.082H210.705L207.493 164.274H201.085Z" fill="black"/>
<path d="M239.098 164.754C236.594 164.754 234.522 164.221 232.882 163.156C231.241 162.08 230.085 160.588 229.414 158.681C228.753 156.764 228.631 154.532 229.046 151.986C229.451 149.471 230.293 147.272 231.571 145.386C232.85 143.5 234.474 142.035 236.445 140.991C238.416 139.937 240.637 139.409 243.109 139.409C245.602 139.409 247.669 139.947 249.309 141.023C250.95 142.089 252.106 143.58 252.777 145.498C253.448 147.415 253.576 149.647 253.16 152.193C252.745 154.697 251.893 156.892 250.604 158.777C249.314 160.663 247.69 162.133 245.73 163.188C243.769 164.232 241.559 164.754 239.098 164.754ZM239.769 159.48C240.92 159.48 241.937 159.155 242.821 158.506C243.716 157.845 244.456 156.95 245.042 155.821C245.639 154.681 246.055 153.392 246.289 151.954C246.523 150.537 246.539 149.28 246.337 148.182C246.134 147.074 245.708 146.201 245.058 145.562C244.419 144.922 243.54 144.603 242.422 144.603C241.271 144.603 240.248 144.933 239.354 145.594C238.459 146.243 237.718 147.138 237.132 148.278C236.546 149.418 236.136 150.713 235.902 152.161C235.678 153.568 235.662 154.825 235.854 155.933C236.046 157.03 236.466 157.898 237.116 158.538C237.766 159.166 238.65 159.48 239.769 159.48Z" fill="black"/>
<path d="M255.621 164.274L259.712 139.729H266.504L264.906 149.253H266.823L275.101 139.729H283.107L272.4 151.906L279.096 164.274H271.026L266.424 155.565H263.883L262.413 164.274H255.621Z" fill="black"/>
<path d="M288.876 164.738C287.32 164.738 285.973 164.466 284.833 163.923C283.704 163.369 282.873 162.549 282.34 161.462C281.807 160.375 281.674 159.028 281.941 157.419C282.175 156.055 282.617 154.915 283.267 153.999C283.927 153.072 284.732 152.327 285.68 151.762C286.628 151.197 287.677 150.766 288.828 150.468C289.989 150.169 291.188 149.967 292.423 149.86C293.851 149.711 295.012 149.567 295.907 149.429C296.813 149.29 297.489 149.093 297.937 148.838C298.384 148.571 298.656 148.177 298.752 147.655V147.559C298.911 146.558 298.725 145.78 298.192 145.226C297.67 144.661 296.834 144.379 295.683 144.379C294.469 144.379 293.436 144.645 292.583 145.178C291.742 145.711 291.14 146.387 290.778 147.208L284.577 146.696C285.131 145.205 285.968 143.916 287.086 142.829C288.215 141.732 289.574 140.89 291.161 140.304C292.748 139.708 294.528 139.409 296.498 139.409C297.862 139.409 299.135 139.569 300.318 139.889C301.511 140.208 302.539 140.704 303.402 141.375C304.275 142.046 304.904 142.909 305.287 143.964C305.682 145.008 305.762 146.259 305.527 147.719L302.763 164.274H296.307L296.882 160.871H296.69C296.168 161.638 295.529 162.314 294.773 162.9C294.016 163.475 293.148 163.928 292.168 164.258C291.188 164.578 290.09 164.738 288.876 164.738ZM291.608 160.04C292.599 160.04 293.51 159.843 294.341 159.448C295.183 159.044 295.875 158.5 296.419 157.818C296.972 157.137 297.324 156.364 297.473 155.501L297.889 152.897C297.676 153.035 297.367 153.158 296.962 153.264C296.568 153.371 296.136 153.472 295.667 153.568C295.209 153.653 294.746 153.733 294.277 153.807C293.808 153.871 293.388 153.935 293.015 153.999C292.194 154.116 291.459 154.303 290.809 154.558C290.16 154.814 289.632 155.16 289.227 155.597C288.823 156.023 288.572 156.556 288.476 157.195C288.327 158.122 288.546 158.831 289.132 159.321C289.728 159.8 290.554 160.04 291.608 160.04Z" fill="black"/>
<path d="M338.083 149.285L337.188 154.638H324.372L325.251 149.285H338.083ZM329.086 139.729L324.995 164.274H318.507L322.598 139.729H329.086ZM343.931 139.729L339.84 164.274H333.384L337.475 139.729H343.931Z" fill="black"/>
<path d="M356.256 164.754C353.742 164.754 351.659 164.242 350.008 163.22C348.357 162.186 347.195 160.727 346.524 158.841C345.864 156.945 345.752 154.702 346.189 152.114C346.615 149.589 347.472 147.373 348.761 145.466C350.061 143.559 351.691 142.073 353.651 141.007C355.612 139.942 357.795 139.409 360.203 139.409C361.822 139.409 363.287 139.67 364.598 140.192C365.919 140.704 367.016 141.481 367.89 142.525C368.763 143.559 369.36 144.853 369.679 146.409C370.01 147.964 370.004 149.786 369.663 151.874L369.36 153.743H348.65L349.305 149.525H363.623C363.783 148.545 363.719 147.676 363.431 146.92C363.143 146.164 362.664 145.572 361.993 145.146C361.322 144.709 360.496 144.491 359.516 144.491C358.515 144.491 357.577 144.736 356.703 145.226C355.83 145.716 355.095 146.361 354.498 147.16C353.912 147.948 353.534 148.806 353.364 149.732L352.613 153.919C352.4 155.208 352.442 156.279 352.74 157.131C353.049 157.984 353.582 158.623 354.338 159.049C355.095 159.464 356.054 159.672 357.215 159.672C357.971 159.672 358.68 159.566 359.34 159.353C360.011 159.139 360.608 158.825 361.13 158.41C361.652 157.984 362.078 157.456 362.408 156.828L368.625 157.243C368.049 158.756 367.176 160.077 366.004 161.206C364.832 162.325 363.42 163.198 361.769 163.827C360.129 164.445 358.291 164.754 356.256 164.754Z" fill="black"/>
<path d="M373.375 145.082L374.27 139.729H396.514L395.619 145.082H387.725L384.545 164.274H378.041L381.237 145.082H373.375Z" fill="black"/>
<ellipse cx="461.251" cy="499.775" rx="10.5028" ry="10.5167" fill="black"/>
<ellipse cx="515.734" cy="499.775" rx="10.5028" ry="10.5167" fill="black"/>
<path d="M471.475 537.024C473.643 544.962 480.607 557.947 489.063 545.409C492.857 550.836 501.273 556.563 506.64 537.024" stroke="black" stroke-width="5"/>
<path d="M498.421 519.141C490.086 514.272 483.371 517.112 481.056 519.141C485.2 521.698 489.194 527.642 489.194 527.516C489.194 526.04 495.527 521.387 498.421 519.141Z" fill="black" stroke="black" stroke-width="5"/>
<path d="M489.18 526.848V545.883" stroke="black" stroke-width="5"/>
<path d="M590.567 503.39C588.041 525.843 553.895 514.578 533.721 525.21" stroke="black" stroke-width="5"/>
<path d="M384.88 503.39C387.407 525.843 421.553 514.578 441.727 525.21" stroke="black" stroke-width="5"/>
<path d="M594.673 557.466C578.882 540.073 551.594 559.065 534.959 543.825" stroke="black" stroke-width="5"/>
<path d="M383.447 557.466C399.238 540.073 426.526 559.065 443.161 543.825" stroke="black" stroke-width="5"/>
<path d="M534.876 533.779L561.513 530.902H594.99" stroke="black" stroke-width="5"/>
<path d="M443.36 533.779L416.723 530.902H383.247" stroke="black" stroke-width="5"/>
<path d="M197.558 281.936C218.506 289.033 236.4 283.441 247.822 287.688C259.244 291.936 261.047 304.007 270.975 301.951C280.902 299.894 269.605 281.936 283.631 275.482C297.657 269.028 307.574 274.493 318.777 275.014C332.154 275.637 354.503 281.38 367.384 275.392C379.432 269.791 388.189 250.537 393.949 239.642C401.345 225.653 406.113 210.786 416.651 198.611C427.476 186.104 441.293 176.954 443.121 159.466C444.257 148.597 441.178 140.741 436.715 130.98C427.659 111.172 412.527 86.9952 392.253 77.0258C381.458 71.7174 369.777 68.3647 362.863 57.5948C358.182 50.3043 360.155 41.1042 356.646 33.4475C346.435 11.1741 308.569 14.598 289.575 15.5257C275.039 16.2358 257.59 19.7845 243.417 15.0541C235.689 12.4747 229.657 6.64058 222.128 4.30104C196.341 -3.7124 143.357 24.1433 136.312 18.4498C129.267 12.7563 71.2466 14.5932 66.6142 62.7818C64.9531 84.2906 47.6555 98.0925 24.3651 106.497C-0.382959 111.06 -5.90974 148.201 17.3377 160.787C35.1243 172.88 26.88 190.369 33.1632 207.949C39.4465 225.529 52.4176 265.227 78.3596 265.227C87.3867 265.227 113.923 279.881 122.879 281.936C137.163 285.214 176.61 274.839 197.558 281.936Z" stroke="black" stroke-width="5" stroke-linecap="round"/>
<path d="M243.607 341.964C250.897 339.864 263.766 334.905 266.971 327.416C266.971 321.497 271.1 326.65 275.213 326.65C278.084 326.65 279.957 325.396 282.647 325.161C287.414 324.746 288.06 327.352 288.976 331.84C290.221 337.931 296.34 332.472 299.087 338.135C300.183 340.395 299.852 343.003 299.852 345.452C299.852 348.773 294.075 350.169 291.44 350.769C288.19 351.509 283.971 350.311 281.33 352.853C278.595 355.487 275.943 358.668 272.664 360.638C267.747 363.592 262.173 352.747 256.223 353.491C251.353 354.101 235.62 356.023 235.62 347.749C235.62 344.539 241.214 342.653 243.607 341.964Z" stroke="black" stroke-width="5" stroke-linecap="round"/>
<path d="M331.585 476.595C317.757 479.275 323.655 465.444 331.968 462.175C331.968 459.496 333.19 459.878 335.621 459.878C336.883 459.878 338.188 459.777 339.444 459.878C341.167 460.016 338.58 461.674 338.765 462.175C340.252 466.217 351.613 460.792 353.208 465.407C353.965 467.598 350.817 470.865 349.597 472.469C347.57 475.133 345.216 474.561 342.29 473.66C337.543 472.197 336.011 475.737 331.585 476.595Z" stroke="black" stroke-width="5" stroke-linecap="round"/>
<path d="M532.961 918.233C538.651 891.486 561.282 851.161 593.853 911.24" stroke="black" stroke-width="5"/>
<path d="M361.666 560.394C366.989 501.76 386.496 391.812 408.677 335.547C424.647 335.547 446.331 415.549 453.724 454.046H529.137C542.446 415.549 572.611 338.554 586.807 338.554C601.002 338.554 616.381 499.946 622.295 580.643C628.21 673.925 622.305 856.683 622.305 899.837C544.203 938.888 406.477 912.171 347.377 893.93C347.378 864.829 355.012 633.687 361.666 560.394Z" stroke="black" stroke-width="5"/>
<path d="M377.162 900.563C390.679 876.792 420.929 846.03 433.793 913.148" stroke="black" stroke-width="5"/>
<path d="M280.141 399.474C286.872 396.104 294.101 397.858 301.381 397.858C303.378 397.858 305.476 397.653 307.456 397.9C310.327 398.26 307.074 401.464 307.074 402.877C307.074 403.571 311.781 403.218 312.426 403.218C314.311 403.218 315.769 404.513 317.269 405.515C321.461 408.313 318.204 408.992 318.204 412.831C318.204 417.746 316.174 422.563 312.256 425.848C306.039 431.06 303.082 418.909 297.558 417.17C294.061 416.069 290.956 412.406 287.447 412.406C282.093 412.406 273.854 415.23 273.854 406.876C273.854 403.828 277.589 400.752 280.141 399.474Z" stroke="black" stroke-width="5" stroke-linecap="round"/>
<path d="M412.545 621.101C390.805 620.685 400.285 698.541 403.933 705.937C407.582 713.334 409.824 713.282 412.545 707.982C416.439 705.009 419.571 700.074 419.112 693.666C419.754 691.035 421.051 688.068 424.171 688.068C428.04 688.068 427.738 691.9 427.992 695.334C428.486 701.997 428.888 706.64 430.953 713.042C432.324 717.292 435.461 723.593 439.887 725.421C446.041 727.963 446.148 722.622 448.104 718.219C448.624 717.05 451.039 709.773 453.72 711.858C457.195 714.561 459.327 719.972 460.771 723.914C463.954 732.607 464.921 742.038 467.983 750.826C470.853 759.062 477.306 771.682 485.691 775.692C497.518 781.348 499.739 761.569 499.739 753.517C499.739 739.101 519.001 749.668 523.424 745.244C526.434 740.229 520.165 731.954 523.424 728.82C525.182 724.802 531.352 721.846 533.001 717.778C534.77 713.415 534.685 704.27 537.738 700.878C541.467 696.735 549.165 705.366 552.539 698.617C555.028 693.639 556.899 687.891 556.899 682.309C556.899 679.044 555.718 675.746 555.93 672.567C553.835 665.261 557.604 649.025 563.142 650.284C568.68 651.543 574.934 653.165 580.473 654.052C593.293 651.51 579.777 624.981 569.929 625.859" stroke="black" stroke-width="5" stroke-linecap="round"/>
</svg>
