<svg width="28" height="28" viewBox="0 0 28 28" fill="none" xmlns="http://www.w3.org/2000/svg">
<path d="M19.5753 13.3055L14.8371 8.56731C14.379 8.10928 13.6209 8.10928 13.1629 8.56731C12.7049 9.02533 12.7049 9.78345 13.1629 10.2415L15.8795 12.9581H1.36473C0.717174 12.9581 0.180176 13.4951 0.180176 14.1426C0.180176 14.7902 0.717174 15.3272 1.36473 15.3272H15.8795L13.1629 18.0437C12.7049 18.5018 12.7049 19.2599 13.1629 19.7179C13.3998 19.9548 13.6999 20.0654 14 20.0654C14.3001 20.0654 14.6002 19.9548 14.8371 19.7179L19.5753 14.9797C20.0333 14.5217 20.0333 13.7636 19.5753 13.3055Z" fill="#BDBDBD"/>
<path d="M23.4764 0.3228H18.7382C18.0906 0.3228 17.5536 0.859798 17.5536 1.50735C17.5536 2.15491 18.0906 2.69191 18.7382 2.69191H23.4764C24.5662 2.69191 25.4507 3.57638 25.4507 4.66617V23.619C25.4507 24.7088 24.5662 25.5933 23.4764 25.5933H18.7382C18.0906 25.5933 17.5536 26.1303 17.5536 26.7779C17.5536 27.4254 18.0906 27.9624 18.7382 27.9624H23.4764C25.8771 27.9624 27.8198 26.0197 27.8198 23.619V4.66617C27.8198 2.26547 25.8771 0.3228 23.4764 0.3228Z" fill="#BDBDBD"/>
</svg>
