<svg width="77" height="78" viewBox="0 0 77 78" fill="none" xmlns="http://www.w3.org/2000/svg">
<circle cx="38.2852" cy="38.8997" r="38.1189" fill="#373A36"/>
<path d="M37.8725 15.1053C37.9347 14.7014 38.5167 14.7014 38.5789 15.1053L40.8681 29.9682C40.9131 30.2603 41.273 30.3747 41.4784 30.1621L52.4852 18.7686C52.7725 18.4712 53.2512 18.8179 53.0583 19.1836L45.9893 32.5863C45.8439 32.862 46.0964 33.1787 46.3975 33.0984L62.3883 28.8344C62.7948 28.726 63.0219 29.2867 62.6546 29.4918L48.6805 37.2927C48.3981 37.4504 48.4537 37.8722 48.7673 37.9513L64.6554 41.9567C65.065 42.06 64.9881 42.6634 64.5657 42.6606L47.98 42.5496C47.6609 42.5474 47.4992 42.933 47.7245 43.1591L58.6968 54.1743C58.9914 54.47 58.6265 54.9446 58.265 54.736L44.1666 46.5988C43.9044 46.4475 43.5846 46.6704 43.6357 46.9688L46.1644 61.7096C46.2338 62.1138 45.6788 62.2974 45.4934 61.9316L38.5445 48.217C38.4122 47.9559 38.0392 47.9559 37.9069 48.217L30.958 61.9316C30.7726 62.2974 30.2176 62.1138 30.287 61.7096L32.8156 46.9688C32.8668 46.6704 32.547 46.4475 32.2848 46.5988L18.1864 54.736C17.8249 54.9446 17.46 54.47 17.7546 54.1743L28.7269 43.1591C28.9522 42.933 28.7905 42.5474 28.4713 42.5496L11.8857 42.6606C11.4633 42.6634 11.3864 42.06 11.796 41.9567L27.6841 37.9513C27.9977 37.8722 28.0533 37.4504 27.7709 37.2927L13.7968 29.4918C13.4295 29.2867 13.6566 28.726 14.0631 28.8344L30.0539 33.0984C30.355 33.1787 30.6074 32.862 30.4621 32.5863L23.3931 19.1836C23.2002 18.8179 23.6789 18.4712 23.9662 18.7686L34.973 30.1621C35.1784 30.3747 35.5383 30.2603 35.5832 29.9682L37.8725 15.1053Z" fill="#EBFF8E"/>
</svg>
