<svg width="1440" height="1886" viewBox="0 0 1440 1886" fill="none" xmlns="http://www.w3.org/2000/svg">
<g clip-path="url(#clip0_337_106)">
<path d="M286.646 160.603C286.702 160.19 287.298 160.19 287.354 160.603L349.183 615.065C349.225 615.371 349.609 615.484 349.809 615.249L647.524 266.358C647.794 266.042 648.296 266.364 648.12 266.741L454.433 682.487C454.303 682.766 454.565 683.069 454.861 682.98L893.939 550.431C894.337 550.311 894.585 550.853 894.233 551.075L506.524 796.108C506.263 796.273 506.32 796.669 506.617 796.753L947.655 922.63C948.055 922.744 947.97 923.334 947.554 923.331L488.918 919.854C488.609 919.852 488.443 920.216 488.647 920.448L791.617 1264.78C791.892 1265.1 791.502 1265.55 791.153 1265.32L407.204 1014.44C406.946 1014.27 406.609 1014.49 406.655 1014.79L475.367 1468.26C475.43 1468.67 474.858 1468.84 474.688 1468.46L287.326 1049.83C287.2 1049.55 286.8 1049.55 286.674 1049.83L99.3122 1468.46C99.1423 1468.84 98.5704 1468.67 98.6327 1468.26L167.345 1014.79C167.391 1014.49 167.054 1014.27 166.796 1014.44L-217.153 1265.32C-217.502 1265.55 -217.892 1265.1 -217.617 1264.78L85.3529 920.448C85.5569 920.216 85.3907 919.852 85.0819 919.854L-373.554 923.331C-373.97 923.334 -374.055 922.744 -373.654 922.63L67.3827 796.753C67.6796 796.669 67.7366 796.273 67.4755 796.108L-320.233 551.075C-320.585 550.853 -320.337 550.311 -319.939 550.431L119.139 682.98C119.435 683.069 119.697 682.766 119.567 682.487L-74.1201 266.741C-74.2958 266.364 -73.7944 266.042 -73.5243 266.358L224.191 615.249C224.391 615.484 224.775 615.371 224.817 615.065L286.646 160.603Z" fill="#EBFF8E"/>
</g>
<defs>
<clipPath id="clip0_337_106">
<rect width="1440" height="1886" fill="white"/>
</clipPath>
</defs>
</svg>
