<svg width="1440" height="1383" viewBox="0 0 1440 1383" fill="none" xmlns="http://www.w3.org/2000/svg">
<g clip-path="url(#clip0_337_76)">
<path d="M-1.3541 2.60274C-1.29801 2.19048 -0.701985 2.19049 -0.645898 2.60275L61.1834 457.065C61.2251 457.371 61.609 457.484 61.8094 457.249L359.524 108.358C359.794 108.042 360.296 108.364 360.12 108.741L166.433 524.487C166.303 524.766 166.565 525.069 166.861 524.98L605.939 392.431C606.337 392.311 606.585 392.853 606.233 393.075L218.524 638.108C218.263 638.273 218.32 638.669 218.617 638.753L659.655 764.63C660.055 764.744 659.97 765.334 659.554 765.331L200.918 761.854C200.609 761.852 200.443 762.216 200.647 762.448L503.617 1106.78C503.892 1107.1 503.502 1107.55 503.153 1107.32L119.204 856.438C118.946 856.269 118.609 856.485 118.655 856.791L187.367 1310.26C187.43 1310.67 186.858 1310.84 186.688 1310.46L-0.67381 891.829C-0.799948 891.547 -1.20005 891.547 -1.32619 891.829L-188.688 1310.46C-188.858 1310.84 -189.43 1310.67 -189.367 1310.26L-120.655 856.791C-120.609 856.485 -120.946 856.269 -121.204 856.438L-505.153 1107.32C-505.502 1107.55 -505.892 1107.1 -505.617 1106.78L-202.647 762.448C-202.443 762.216 -202.609 761.852 -202.918 761.854L-661.554 765.331C-661.97 765.334 -662.055 764.744 -661.654 764.63L-220.617 638.753C-220.32 638.669 -220.263 638.273 -220.524 638.108L-608.233 393.075C-608.585 392.853 -608.337 392.311 -607.939 392.431L-168.861 524.98C-168.565 525.069 -168.303 524.766 -168.433 524.487L-362.12 108.741C-362.296 108.364 -361.794 108.042 -361.524 108.358L-63.8094 457.249C-63.609 457.484 -63.2251 457.371 -63.1834 457.065L-1.3541 2.60274Z" fill="#DCDCDC"/>
</g>
<defs>
<clipPath id="clip0_337_76">
<rect width="1440" height="1383" fill="white"/>
</clipPath>
</defs>
</svg>
