<svg width="1441" height="1497" viewBox="0 0 1441 1497" fill="none" xmlns="http://www.w3.org/2000/svg">
<g clip-path="url(#clip0_342_129)">
<path d="M1090.01 -202.397C1090.07 -202.81 1090.66 -202.81 1090.72 -202.397L1152.55 252.065C1152.59 252.371 1152.97 252.484 1153.17 252.249L1450.89 -96.6418C1451.16 -96.9583 1451.66 -96.636 1451.48 -96.2589L1257.8 319.487C1257.67 319.766 1257.93 320.069 1258.22 319.98L1697.3 187.431C1697.7 187.311 1697.95 187.853 1697.6 188.075L1309.89 433.108C1309.63 433.273 1309.68 433.669 1309.98 433.753L1751.02 559.63C1751.42 559.744 1751.33 560.334 1750.92 560.331L1292.28 556.854C1291.97 556.852 1291.81 557.216 1292.01 557.448L1594.98 901.785C1595.26 902.097 1594.87 902.547 1594.52 902.32L1210.57 651.438C1210.31 651.269 1209.97 651.485 1210.02 651.791L1278.73 1105.26C1278.79 1105.67 1278.22 1105.84 1278.05 1105.46L1090.69 686.829C1090.56 686.547 1090.16 686.547 1090.04 686.829L902.676 1105.46C902.507 1105.84 901.935 1105.67 901.997 1105.26L970.709 651.791C970.755 651.485 970.419 651.269 970.16 651.438L586.211 902.32C585.863 902.547 585.472 902.097 585.747 901.785L888.717 557.448C888.921 557.216 888.755 556.852 888.446 556.854L429.811 560.331C429.394 560.334 429.31 559.744 429.71 559.63L870.747 433.753C871.044 433.669 871.101 433.273 870.84 433.108L483.131 188.075C482.78 187.853 483.027 187.311 483.425 187.431L922.504 319.98C922.799 320.069 923.061 319.766 922.931 319.487L729.244 -96.2589C729.068 -96.636 729.57 -96.9583 729.84 -96.6418L1027.55 252.249C1027.76 252.484 1028.14 252.371 1028.18 252.065L1090.01 -202.397Z" fill="#DCDCDC"/>
</g>
<defs>
<clipPath id="clip0_342_129">
<rect width="1440" height="1497" fill="white" transform="translate(0.364258)"/>
</clipPath>
</defs>
</svg>
