<svg width="684" height="896" viewBox="0 0 684 896" fill="none" xmlns="http://www.w3.org/2000/svg">
<path d="M598.929 228.821C597.797 233.692 596.334 238.95 594.524 244.506M102.237 228.821C144.948 232.307 247.511 217.979 316.075 132.784C392.069 162.962 557.789 252.641 598.929 225.796C645.318 195.527 577.715 -77.4488 278.738 26.5681C220.848 18.0376 107.838 40.8201 91.7717 188.095C92.1488 190.148 94.7699 228.466 102.237 228.821ZM102.237 228.821C102.288 230.653 102.526 232.968 102.971 235.701M598.929 231.298C627.875 220.107 684.691 207.082 680.391 244.506C675.017 291.286 574.887 311.65 573.19 294.864M102.971 235.701C76.1384 218.823 18.8518 195.195 4.36969 235.701C-13.733 286.333 114.605 290.342 122.438 290.342M102.971 235.701C103.803 240.805 105.358 247.367 107.76 254.963M483.808 435.205H193.599M483.808 435.205L640.907 554.112L584.494 603.043L546.446 630.58M483.808 435.205C479.427 441.73 510.782 532.981 546.446 630.58M193.599 435.205L37.1808 506.2L80.162 541.973M193.599 435.205L144.634 595.632M613.072 808.069C476.623 833.165 201.708 815.224 81.3061 803.116L82.8178 798.163M613.072 808.069L621.275 866.682C502.57 875.671 226.806 887.045 73.3862 860.628L82.8178 798.163M613.072 808.069C594.859 760.747 569.734 694.31 546.446 630.58M82.8178 798.163L144.634 595.632M326.824 502.073C321.845 499.431 314.001 468.318 310.701 453.091H394.426C394.426 468.042 392.898 498.77 386.789 502.073C385.498 502.77 383.109 503.326 380 503.753M326.824 502.073C331.995 504.817 364.709 505.851 380 503.753M326.824 502.073C320.261 515.281 291.844 618.105 279.87 665.803L338.703 705.153C361.238 691.119 407.55 661.95 412.528 657.547C417.507 653.144 392.917 553.183 380 503.753M144.634 595.632L80.162 541.973M80.162 541.973L4.36969 623.7L135.614 735.973M598.929 590.522L640.907 630.58L513.283 744.948M394.426 311.65C370.477 315.136 323.033 313.026 324.844 276.702M401.78 270.098C401.591 258.816 395.161 241.149 370.949 260.742M594.524 244.506C608.155 241.204 635.191 237.682 634.286 250.01C633.381 262.338 600.714 268.539 584.494 270.098M594.524 244.506C591.918 252.505 588.591 261.123 584.494 270.098M584.494 270.098C554.935 334.837 485.238 418.156 356.24 421.721C207.898 425.821 140.082 333.864 114.789 273.95M107.76 254.963C97.9049 248.175 76.3278 236.636 68.8605 244.782C59.5263 254.963 106.126 274.501 114.789 273.95M107.76 254.963C109.591 260.754 111.916 267.145 114.789 273.95M380 808.069C383.583 833.752 388.599 886.219 380 890.622C371.401 895.025 314.189 892.457 286.658 890.622C284.395 864.572 281.228 811.591 286.658 808.069C292.089 804.547 351.149 806.602 380 808.069Z" stroke="#FAFAFA" stroke-width="5" stroke-linecap="round"/>
<path d="M461.93 234.477C461.93 239.263 465.938 243.259 471.027 243.259C476.117 243.259 480.124 239.263 480.124 234.477C480.124 229.691 476.117 225.694 471.027 225.694C465.938 225.694 461.93 229.691 461.93 234.477Z" fill="#FAFAFA" stroke="#FAFAFA" stroke-width="5"/>
<path d="M280.903 234.477C280.903 239.263 284.911 243.259 290.001 243.259C295.09 243.259 299.098 239.263 299.098 234.477C299.098 229.691 295.09 225.694 290.001 225.694C284.911 225.694 280.903 229.691 280.903 234.477Z" fill="#FAFAFA" stroke="#FAFAFA" stroke-width="5"/>
<path d="M469.533 799.999C474.465 803.597 481.341 804.173 488.76 801.72C496.166 799.271 503.851 793.861 509.93 785.977C516.008 778.092 519.195 769.4 519.537 761.797C519.881 754.182 517.388 747.921 512.456 744.323C507.524 740.724 500.648 740.149 493.229 742.602C485.823 745.05 478.138 750.461 472.06 758.345C465.981 766.229 462.795 774.922 462.452 782.524C462.109 790.14 464.601 796.4 469.533 799.999Z" stroke="#FAFAFA" stroke-width="5"/>
<path d="M136.38 739.249C133.417 744.466 133.767 751.154 137.295 757.975C140.816 764.781 147.395 771.448 156.276 776.223C165.157 780.998 174.461 782.869 182.257 782.148C190.072 781.425 196.078 778.154 199.042 772.938C202.005 767.721 201.655 761.033 198.126 754.212C194.606 747.406 188.026 740.739 179.145 735.964C170.264 731.189 160.96 729.318 153.164 730.039C145.35 730.762 139.343 734.033 136.38 739.249Z" stroke="#FAFAFA" stroke-width="5"/>
</svg>
