<svg width="433" height="600" viewBox="0 0 433 600" fill="none" xmlns="http://www.w3.org/2000/svg">
<path fill-rule="evenodd" clip-rule="evenodd" d="M0 322.386L47.2465 434.513C47.4091 434.899 47.9887 434.739 47.9296 434.324L30.5612 312.575C30.5172 312.267 30.8624 312.053 31.1188 312.231L128.182 379.597C128.523 379.834 128.926 379.395 128.661 379.075L52.0012 286.534C51.8074 286.3 51.9755 285.946 52.2793 285.948L168.34 286.883C168.753 286.886 168.842 286.303 168.447 286.183L56.8105 252.341C56.522 252.254 56.4647 251.87 56.715 251.702L154.848 185.827C155.192 185.597 154.934 185.064 154.54 185.19L43.4808 220.8C43.1877 220.894 42.9208 220.599 43.0444 220.317L92.0278 108.64C92.1955 108.258 91.6834 107.947 91.4219 108.273L16.1907 201.915C15.9933 202.161 15.5977 202.049 15.5577 201.737L0 80.2764V322.386Z" fill="#474747"/>
<path d="M177.942 546.298V543.401H179.252C179.799 543.401 180.25 543.308 180.605 543.124C180.967 542.939 181.262 542.69 181.489 542.378C181.724 542.058 181.919 541.71 182.075 541.334L182.384 540.556L174.714 524.182H178.208L183.929 536.795L189.021 524.182H192.473L184.93 542.218C184.611 542.942 184.241 543.614 183.822 544.232C183.411 544.849 182.86 545.35 182.171 545.734C181.482 546.11 180.57 546.298 179.433 546.298H177.942ZM205.976 529.636V546H202.865V529.636H205.976ZM204.623 537.232V539.981C204.133 540.18 203.615 540.357 203.068 540.513C202.521 540.663 201.946 540.78 201.342 540.865C200.738 540.95 200.11 540.993 199.456 540.993C197.432 540.993 195.824 540.499 194.63 539.512C193.437 538.518 192.841 536.998 192.841 534.952V529.604H195.941V534.952C195.941 535.727 196.083 536.355 196.367 536.838C196.651 537.321 197.056 537.676 197.581 537.903C198.107 538.131 198.732 538.244 199.456 538.244C200.415 538.244 201.299 538.156 202.109 537.978C202.926 537.793 203.764 537.545 204.623 537.232ZM217.266 546.33C215.654 546.33 214.265 545.986 213.101 545.297C211.943 544.601 211.048 543.624 210.416 542.367C209.791 541.103 209.479 539.622 209.479 537.925C209.479 536.249 209.791 534.771 210.416 533.493C211.048 532.214 211.929 531.217 213.058 530.499C214.194 529.782 215.523 529.423 217.042 529.423C217.966 529.423 218.861 529.576 219.727 529.881C220.594 530.187 221.371 530.666 222.06 531.32C222.749 531.973 223.292 532.822 223.69 533.866C224.088 534.903 224.287 536.163 224.287 537.648V538.777H211.279V536.391H221.165C221.165 535.553 220.995 534.81 220.654 534.164C220.313 533.511 219.834 532.996 219.216 532.619C218.605 532.243 217.888 532.055 217.064 532.055C216.169 532.055 215.388 532.275 214.72 532.715C214.059 533.148 213.548 533.717 213.186 534.42C212.831 535.116 212.653 535.872 212.653 536.689V538.553C212.653 539.647 212.845 540.577 213.229 541.344C213.619 542.112 214.162 542.697 214.858 543.102C215.555 543.5 216.368 543.699 217.298 543.699C217.902 543.699 218.452 543.614 218.949 543.443C219.447 543.266 219.876 543.003 220.238 542.655C220.601 542.307 220.878 541.877 221.069 541.366L224.084 541.909C223.843 542.797 223.41 543.575 222.785 544.242C222.167 544.903 221.389 545.418 220.452 545.787C219.521 546.149 218.459 546.33 217.266 546.33ZM238.911 536.444V539.203H230.048V536.444H238.911ZM230.942 529.636V546H227.821V529.636H230.942ZM241.138 529.636V546H238.027V529.636H241.138ZM248.521 541.536L255.733 529.636H259.163V546H256.042V534.089L248.862 546H245.399V529.636H248.521V541.536ZM263.446 546V529.636H266.631V536.497H268.165L273.567 529.636H277.509L271.17 537.594L277.583 546H273.631L268.698 539.459H266.631V546H263.446Z" fill="#FAFAFA"/>
<path d="M148.475 196.964C148.947 199.055 149.558 201.311 150.314 203.696M355.856 196.964C338.023 198.46 295.201 192.311 266.573 155.747C234.844 168.699 165.652 207.187 148.475 195.666C129.106 182.675 157.332 65.5208 282.163 110.162C306.333 106.501 353.518 116.279 360.226 179.485C360.068 180.367 358.974 196.811 355.856 196.964ZM355.856 196.964C355.835 197.75 355.736 198.744 355.55 199.916M148.475 198.027C136.389 193.224 112.667 187.634 114.462 203.696C116.706 223.772 158.513 232.512 159.222 225.308M355.55 199.916C366.753 192.673 390.672 182.532 396.718 199.916C404.277 221.647 350.693 223.367 347.422 223.367M355.55 199.916C355.202 202.107 354.553 204.923 353.55 208.183M196.541 285.538H317.71M196.541 285.538L120 319.5L170.388 369.388M196.541 285.538C198.37 288.339 185.278 327.501 170.388 369.388M317.71 285.538L383.019 316.008L365.073 331.361M317.71 285.538L338.155 354.39M142.57 445.562C199.541 456.333 314.325 448.633 364.596 443.436L363.964 441.311M142.57 445.562L139.145 470.717C188.707 474.575 303.845 479.456 367.902 468.119L363.964 441.311M142.57 445.562C150.174 425.253 160.664 396.74 170.388 369.388M363.964 441.311L338.155 354.39M262.086 314.236C264.164 313.103 267.44 299.75 268.817 293.215H233.86C233.86 299.631 234.498 312.819 237.049 314.236C237.588 314.536 238.585 314.774 239.883 314.957M262.086 314.236C259.927 315.414 246.268 315.858 239.883 314.957M262.086 314.236C264.826 319.905 276.691 364.035 281.69 384.505L257.126 401.393C247.717 395.37 228.38 382.852 226.302 380.962C224.223 379.072 234.49 336.172 239.883 314.957M338.155 354.39L365.073 331.361M365.073 331.361L396.718 366.436L341.921 414.62M145.5 347L106.5 364.5L54.9999 275M233.86 232.512C243.859 234.008 263.668 233.102 262.912 217.513M230.79 214.679C230.868 209.837 233.553 202.255 243.662 210.663M150.314 203.696C144.623 202.278 133.334 200.767 133.712 206.058C134.09 211.348 147.729 214.01 154.502 214.679M150.314 203.696C151.402 207.128 152.791 210.827 154.502 214.679M154.502 214.679C166.844 242.463 195.944 278.221 249.803 279.751C311.74 281.511 340.055 242.046 350.616 216.332M353.55 208.183C357.665 205.27 366.674 200.318 369.792 203.814C373.689 208.183 354.233 216.568 350.616 216.332M353.55 208.183C352.786 210.669 351.815 213.412 350.616 216.332M239.883 445.562C238.387 456.585 236.293 479.102 239.883 480.992C243.473 482.881 267.361 481.779 278.856 480.992C279.801 469.812 281.123 447.074 278.856 445.562C276.588 444.05 251.929 444.932 239.883 445.562Z" stroke="#FAFAFA" stroke-width="3" stroke-linecap="round" stroke-linejoin="round"/>
<circle cx="201.877" cy="199.391" r="3.34205" fill="#FAFAFA" stroke="#FAFAFA" stroke-width="3"/>
<circle cx="277.46" cy="199.391" r="3.34205" fill="#FAFAFA" stroke="#FAFAFA" stroke-width="3"/>
<path d="M55.0449 273.956C53.1409 275.384 50.4371 275.65 47.4299 274.628C44.4311 273.608 41.2908 271.345 38.7979 268.021C36.305 264.697 35.011 261.049 34.8722 257.884C34.7331 254.711 35.745 252.19 37.649 250.762C39.553 249.334 42.2568 249.068 45.264 250.09C48.2628 251.109 51.4031 253.373 53.896 256.697C56.3889 260.021 57.6829 263.669 57.8217 266.834C57.9608 270.007 56.9489 272.528 55.0449 273.956Z" stroke="#FAFAFA" stroke-width="3"/>
<path d="M341.207 416.244C342.358 418.327 342.248 421.041 340.82 423.879C339.396 426.708 336.72 429.505 333.083 431.515C329.447 433.524 325.655 434.302 322.502 434.002C319.34 433.701 316.982 432.35 315.831 430.267C314.68 428.184 314.791 425.469 316.219 422.632C317.643 419.803 320.319 417.006 323.955 414.996C327.592 412.987 331.384 412.209 334.537 412.509C337.699 412.81 340.056 414.161 341.207 416.244Z" stroke="#FAFAFA" stroke-width="3"/>
</svg>
