<svg width="1341" height="1675" viewBox="0 0 1341 1675" fill="none" xmlns="http://www.w3.org/2000/svg">
<path d="M909.146 -125.377C909.202 -125.79 909.798 -125.79 909.854 -125.377L995.001 500.472C995.042 500.778 995.426 500.89 995.627 500.656L1405.62 20.1913C1405.89 19.8748 1406.39 20.1971 1406.21 20.5742L1139.48 593.106C1139.35 593.386 1139.61 593.688 1139.91 593.599L1744.57 411.064C1744.97 410.943 1745.22 411.485 1744.87 411.708L1210.95 749.147C1210.68 749.312 1210.74 749.708 1211.04 749.793L1818.4 923.14C1818.8 923.254 1818.72 923.844 1818.3 923.841L1186.7 919.053C1186.39 919.051 1186.23 919.415 1186.43 919.646L1603.66 1393.84C1603.93 1394.15 1603.54 1394.6 1603.19 1394.38L1074.45 1048.88C1074.19 1048.71 1073.85 1048.93 1073.9 1049.23L1168.53 1673.72C1168.59 1674.13 1168.02 1674.3 1167.85 1673.92L909.826 1097.41C909.7 1097.13 909.3 1097.13 909.174 1097.41L651.155 1673.92C650.985 1674.3 650.413 1674.13 650.475 1673.72L745.1 1049.23C745.146 1048.93 744.809 1048.71 744.551 1048.88L215.807 1394.38C215.458 1394.6 215.068 1394.15 215.343 1393.84L632.569 919.646C632.773 919.415 632.607 919.051 632.298 919.053L0.701424 923.841C0.285386 923.844 0.200554 923.254 0.600628 923.14L607.962 749.793C608.259 749.708 608.316 749.312 608.055 749.147L74.1335 411.708C73.7818 411.485 74.0294 410.943 74.4277 411.063L679.091 593.599C679.387 593.688 679.649 593.386 679.519 593.106L412.789 20.5742C412.613 20.1971 413.114 19.8748 413.384 20.1913L823.374 500.656C823.574 500.89 823.958 500.778 824 500.472L909.146 -125.377Z" fill="#DCFF3A"/>
</svg>
