<svg width="434" height="600" viewBox="0 0 434 600" fill="none" xmlns="http://www.w3.org/2000/svg">
<path d="M175.942 546.298V543.401H177.252C177.799 543.401 178.25 543.308 178.605 543.124C178.967 542.939 179.262 542.69 179.489 542.378C179.724 542.058 179.919 541.71 180.075 541.334L180.384 540.556L172.714 524.182H176.208L181.929 536.795L187.021 524.182H190.473L182.93 542.218C182.611 542.942 182.241 543.614 181.822 544.232C181.411 544.849 180.86 545.35 180.171 545.734C179.482 546.11 178.57 546.298 177.433 546.298H175.942ZM203.976 529.636V546H200.865V529.636H203.976ZM202.623 537.232V539.981C202.133 540.18 201.615 540.357 201.068 540.513C200.521 540.663 199.946 540.78 199.342 540.865C198.738 540.95 198.11 540.993 197.456 540.993C195.432 540.993 193.824 540.499 192.63 539.512C191.437 538.518 190.841 536.998 190.841 534.952V529.604H193.941V534.952C193.941 535.727 194.083 536.355 194.367 536.838C194.651 537.321 195.056 537.676 195.581 537.903C196.107 538.131 196.732 538.244 197.456 538.244C198.415 538.244 199.299 538.156 200.109 537.978C200.926 537.793 201.764 537.545 202.623 537.232ZM211.335 541.536L218.547 529.636H221.978V546H218.856V534.089L211.676 546H208.214V529.636H211.335V541.536ZM224.231 532.385V529.636H238.038V532.385H232.7V546H229.59V532.385H224.231ZM247.698 546.33C246.086 546.33 244.697 545.986 243.532 545.297C242.375 544.601 241.48 543.624 240.848 542.367C240.223 541.103 239.91 539.622 239.91 537.925C239.91 536.249 240.223 534.771 240.848 533.493C241.48 532.214 242.36 531.217 243.49 530.499C244.626 529.782 245.954 529.423 247.474 529.423C248.397 529.423 249.292 529.576 250.159 529.881C251.025 530.187 251.803 530.666 252.492 531.32C253.181 531.973 253.724 532.822 254.122 533.866C254.52 534.903 254.718 536.163 254.718 537.648V538.777H241.711V536.391H251.597C251.597 535.553 251.426 534.81 251.086 534.164C250.745 533.511 250.265 532.996 249.647 532.619C249.037 532.243 248.319 532.055 247.495 532.055C246.6 532.055 245.819 532.275 245.152 532.715C244.491 533.148 243.98 533.717 243.618 534.42C243.262 535.116 243.085 535.872 243.085 536.689V538.553C243.085 539.647 243.277 540.577 243.66 541.344C244.051 542.112 244.594 542.697 245.29 543.102C245.986 543.5 246.799 543.699 247.73 543.699C248.333 543.699 248.884 543.614 249.381 543.443C249.878 543.266 250.308 543.003 250.67 542.655C251.032 542.307 251.309 541.877 251.501 541.366L254.516 541.909C254.275 542.797 253.841 543.575 253.216 544.242C252.598 544.903 251.821 545.418 250.883 545.787C249.953 546.149 248.891 546.33 247.698 546.33ZM256.964 546L256.953 543.241H257.539C257.993 543.241 258.373 543.145 258.679 542.953C258.991 542.754 259.247 542.42 259.446 541.952C259.645 541.483 259.797 540.837 259.904 540.013C260.01 539.182 260.089 538.138 260.138 536.881L260.426 529.636H271.846V546H268.725V532.385H263.377L263.121 537.946C263.057 539.295 262.919 540.474 262.706 541.483C262.5 542.491 262.198 543.333 261.8 544.008C261.403 544.675 260.891 545.176 260.266 545.51C259.641 545.837 258.881 546 257.986 546H256.964ZM278.491 535.261H283.243C285.246 535.261 286.787 535.759 287.866 536.753C288.946 537.747 289.486 539.029 289.486 540.599C289.486 541.621 289.244 542.541 288.761 543.358C288.278 544.175 287.572 544.821 286.641 545.297C285.711 545.766 284.578 546 283.243 546H276.094V529.636H279.216V543.251H283.243C284.159 543.251 284.912 543.013 285.501 542.538C286.091 542.055 286.386 541.44 286.386 540.695C286.386 539.906 286.091 539.263 285.501 538.766C284.912 538.262 284.159 538.01 283.243 538.01H278.491V535.261Z" fill="#3A3A3A"/>
<path fill-rule="evenodd" clip-rule="evenodd" d="M433.032 86.0017C432.857 85.9836 432.669 86.086 432.639 86.3088L416.451 205.145C416.409 205.451 416.026 205.564 415.825 205.329L337.879 114.099C337.609 113.782 337.108 114.105 337.284 114.482L387.993 223.192C388.123 223.472 387.861 223.775 387.566 223.686L272.611 189.027C272.213 188.906 271.965 189.449 272.317 189.671L373.821 253.742C374.083 253.907 374.026 254.303 373.729 254.388L258.263 287.302C257.863 287.416 257.947 288.006 258.364 288.003L378.437 287.094C378.746 287.091 378.912 287.455 378.708 287.687L299.388 377.725C299.113 378.037 299.503 378.488 299.852 378.26L400.374 312.658C400.633 312.49 400.969 312.706 400.923 313.011L382.933 431.588C382.871 431.999 383.443 432.167 383.613 431.788L432.667 322.32C432.736 322.165 432.888 322.095 433.032 322.111V86.0017Z" fill="#DCFF3A"/>
<path d="M143.879 188.58C146.995 187.654 154.279 186.622 158.486 189.894M202.891 192.085L215.34 185.366M99.3274 185.366L82.9675 166.231C93.3677 160.271 133.459 132.002 152.205 118.612C173.239 143.687 218.579 194.189 231.667 195.591M141.104 208.591C143.928 205.718 151.913 201.697 161.261 208.591M123.595 219.178C132.7 228.575 153.225 240.446 179.05 219.178M113.204 166.231L126.35 165.062M180.25 164.332L192.082 168.13" stroke="#3A3A3A" stroke-width="3" stroke-linecap="round"/>
<circle cx="4.52818" cy="4.52818" r="3.02818" transform="matrix(-1 0 0 1 128.104 181.714)" fill="#3A3A3A" stroke="#3A3A3A" stroke-width="3"/>
<circle cx="4.52818" cy="4.52818" r="3.02818" transform="matrix(-1 0 0 1 180.689 185.804)" fill="#3A3A3A" stroke="#3A3A3A" stroke-width="3"/>
<path d="M378 290.5L421.267 212.973" stroke="#3A3A3A"/>
<path d="M152.329 119.78C150.625 111.6 139.942 96.0878 110.845 99.4766C74.4732 103.713 50.8097 141.545 48.0344 180.254C45.3913 217.119 46.3342 244.631 46.3342 244.631C43.1207 244.631 98.5932 246.823 116.755 247.553M118.455 262.5C66.1032 331.913 41.1691 482.035 41.1691 482.035H267.578C267.578 482.035 250.682 414.783 232.31 355.83M118.455 262.5L18.236 332.313L43.7253 344.072M118.455 262.5H154.5H194M194 262.5C203.013 269.194 219.324 314.159 232.31 355.83M194 262.5L285.545 292.728L261.515 321.212M71 357L43.7253 344.072M232.31 355.83L261.515 321.212M43.7253 344.072L14 391.764L87.5 421M261.515 321.212L306.287 347.796L363.693 308.065" stroke="#3A3A3A" stroke-width="3"/>
<path d="M151.767 119.342C155.614 113.986 168.507 103.187 189.307 102.836C215.308 102.398 252.695 125.896 262.342 201.872C265.848 229.479 265.848 249.783 265.848 249.783L191 248.5" stroke="#3A3A3A" stroke-width="3"/>
<path d="M378.592 307.737C373.476 312.459 366.011 312.353 361.896 307.893C357.78 303.434 358.274 295.985 363.39 291.263C368.507 286.541 375.972 286.647 380.087 291.107C384.203 295.567 383.709 303.015 378.592 307.737Z" stroke="#3A3A3A" stroke-width="3"/>
<path d="M97.0545 437.419C90.1774 436.332 85.6319 430.41 86.5792 424.416C87.5266 418.422 93.6769 414.19 100.554 415.277C107.431 416.364 111.977 422.286 111.029 428.28C110.082 434.274 103.931 438.506 97.0545 437.419Z" stroke="#3A3A3A" stroke-width="3"/>
<path d="M120.647 198.626C114.381 198.22 108.872 196.478 105.033 194.066C101.138 191.617 99.2814 188.713 99.4559 186.021C99.6305 183.329 101.847 180.688 106.026 178.764C110.144 176.867 115.831 175.851 122.097 176.257C128.363 176.664 133.872 178.405 137.71 180.818C141.606 183.267 143.462 186.171 143.288 188.863C143.113 191.555 140.897 194.195 136.718 196.12C132.6 198.017 126.912 199.033 120.647 198.626Z" stroke="#3A3A3A" stroke-width="3"/>
<path d="M179.951 201.548C173.685 201.142 168.176 199.4 164.337 196.987C160.442 194.538 158.586 191.634 158.76 188.942C158.935 186.25 161.151 183.61 165.33 181.685C169.448 179.788 175.136 178.772 181.401 179.179C187.667 179.585 193.176 181.327 197.015 183.74C200.91 186.188 202.766 189.092 202.592 191.784C202.417 194.476 200.201 197.117 196.022 199.042C191.904 200.938 186.217 201.954 179.951 201.548Z" stroke="#3A3A3A" stroke-width="3"/>
<path d="M82.1554 166.105C76.9726 193.919 82.1466 250.665 145.999 255.226C209.851 259.786 229.52 217.275 231.593 195.68" stroke="#3A3A3A" stroke-width="3"/>
</svg>
