<svg width="687" height="896" viewBox="0 0 687 896" fill="none" xmlns="http://www.w3.org/2000/svg">
<path d="M250.336 205.712C250.336 210.146 253.924 213.733 258.34 213.733C262.756 213.733 266.344 210.146 266.344 205.712C266.344 201.278 262.756 197.69 258.34 197.69C253.924 197.69 250.336 201.278 250.336 205.712Z" fill="#3A3A3A" stroke="#3A3A3A" stroke-width="5"/>
<path d="M306.127 213.36C313.355 211.211 328.274 208.005 338.032 215.607M443.015 221.506L473.882 208.205M199.898 202.617L164.835 161.432C188.959 147.584 281.957 81.899 325.44 50.7872C374.232 109.051 470.966 220.256 501.325 223.514M299.689 259.858C306.24 253.184 324.763 243.839 346.448 259.858M253.947 263.931C275.068 285.766 332.285 317.082 392.19 267.665M234.973 161.432L265.467 158.717M390.496 157.02L417.941 165.844" stroke="#3A3A3A" stroke-width="5" stroke-linecap="round"/>
<path d="M372.315 215.215C372.315 219.649 375.902 223.237 380.319 223.237C384.735 223.237 388.323 219.649 388.323 215.215C388.323 210.781 384.735 207.194 380.319 207.194C375.902 207.194 372.315 210.781 372.315 215.215Z" fill="#3A3A3A" stroke="#3A3A3A" stroke-width="5"/>
<path d="M164.111 160.53C142.425 223.88 141.817 353.508 308.79 375.264C474.976 375.264 507.154 272.391 501.215 223.099" stroke="#3A3A3A" stroke-width="5"/>
<path d="M325.037 51.2842C321.084 32.2777 296.304 -3.7667 228.809 4.10742C144.44 13.9501 89.5498 101.855 83.1122 191.796C76.981 277.456 83.1122 338.418 83.1122 338.418C75.6578 338.418 182.712 347.142 224.84 348.839M238.296 393.401L427.703 400.189M238.296 393.401C116.86 554.685 67.187 893 67.187 893H592.374C592.374 893 553.18 736.736 510.565 599.757M238.296 393.401L13.9906 545.113L73.1166 572.435M427.703 400.189C448.61 415.744 480.442 502.933 510.565 599.757M427.703 400.189L634.051 453.136L578.311 519.319M136.384 602.475L73.1166 572.435M510.565 599.757L578.311 519.319M73.1166 572.435L4.16455 683.25L174.658 751.182M578.311 519.319L682.165 581.09L469.749 736.238" stroke="#3A3A3A" stroke-width="5"/>
<path d="M323.734 50.2654C332.657 37.8207 362.564 12.7276 410.814 11.913C471.126 10.8948 557.85 65.4936 580.229 242.027C588.361 306.175 588.361 353.351 588.361 353.351L425.499 350.731" stroke="#3A3A3A" stroke-width="5"/>
<path d="M463.285 774.15C451.079 785.433 433.136 785.278 423.168 774.457C413.2 763.637 414.485 745.709 426.691 734.427C438.897 723.144 456.84 723.299 466.808 734.119C476.777 744.94 475.491 762.868 463.285 774.15Z" stroke="#3A3A3A" stroke-width="5"/>
<path d="M196.667 790.305C180.266 787.708 169.259 773.513 171.554 758.966C173.85 744.418 188.691 734.315 205.092 736.912C221.493 739.508 232.5 753.703 230.204 768.251C227.909 782.798 213.068 792.901 196.667 790.305Z" stroke="#3A3A3A" stroke-width="5"/>
<path d="M188.576 695.259L191.499 736.489L233.088 733.955M188.576 695.259L230.155 692.585M188.576 695.259L260.629 690.626M188.576 695.259L185.799 656.091L371.842 642.875M233.088 733.955L230.155 692.585M233.088 733.955L263.57 732.098M230.155 692.585L260.629 690.626M245.906 692.844L248.712 732.424L263.57 732.098M263.57 732.098L437.403 721.507L434.421 679.452L404.564 681.372M260.629 690.626L263.518 731.372M260.629 690.626L362.768 684.059M434.305 677.803L431.528 638.635L399.834 640.886M358.409 643.829L362.768 684.059M362.768 684.059L374.707 683.292M374.707 683.292L371.842 642.875M374.707 683.292L404.564 681.372M371.842 642.875L390.779 641.529M390.779 641.529L393.555 680.698L404.564 681.372M390.779 641.529L399.834 640.886M404.564 681.372L401.919 644.053L399.834 640.886" stroke="#3A3A3A" stroke-width="5"/>
<path d="M194.592 791.269L197.03 820.728L442.235 803.298L440.072 782.743" stroke="#3A3A3A" stroke-width="5"/>
<path d="M229.489 772.205L390.883 760.732M390.883 760.732L414.948 758.67L419.457 804.896L395.722 806.584L390.883 760.732ZM376.048 764.574L381.877 807.568" stroke="#3A3A3A" stroke-width="5"/>
<path d="M251.483 235.47C236.819 234.518 223.876 230.433 214.809 224.724C205.649 218.957 200.975 211.922 201.414 205.133C201.854 198.344 207.395 191.973 217.223 187.439C226.95 182.951 240.311 180.575 254.975 181.528C269.639 182.48 282.582 186.564 291.648 192.273C300.809 198.041 305.483 205.075 305.043 211.864C304.604 218.653 299.062 225.024 289.234 229.559C279.508 234.047 266.147 236.423 251.483 235.47Z" stroke="#3A3A3A" stroke-width="5"/>
<path d="M389.047 242.258C374.383 241.306 361.44 237.221 352.373 231.512C343.213 225.745 338.539 218.71 338.978 211.921C339.418 205.132 344.959 198.761 354.787 194.227C364.513 189.739 377.875 187.363 392.539 188.316C407.203 189.268 420.146 193.353 429.212 199.061C438.373 204.829 443.047 211.863 442.607 218.652C442.168 225.441 436.626 231.812 426.798 236.347C417.072 240.835 403.711 243.211 389.047 242.258Z" stroke="#3A3A3A" stroke-width="5"/>
</svg>
